<?xml version="1.0" encoding="utf-8" standalone="no"?>
<!DOCTYPE svg PUBLIC "-//W3C//DTD SVG 1.1//EN"
  "http://www.w3.org/Graphics/SVG/1.1/DTD/svg11.dtd">
<svg xmlns:xlink="http://www.w3.org/1999/xlink" width="324pt" height="288pt" viewBox="0 0 324 288" xmlns="http://www.w3.org/2000/svg" version="1.1">
 <metadata>
  <rdf:RDF xmlns:dc="http://purl.org/dc/elements/1.1/" xmlns:cc="http://creativecommons.org/ns#" xmlns:rdf="http://www.w3.org/1999/02/22-rdf-syntax-ns#">
   <cc:Work>
    <dc:type rdf:resource="http://purl.org/dc/dcmitype/StillImage"/>
    <dc:date>2022-07-25T14:17:50.310787</dc:date>
    <dc:format>image/svg+xml</dc:format>
    <dc:creator>
     <cc:Agent>
      <dc:title>Matplotlib v3.5.1, https://matplotlib.org/</dc:title>
     </cc:Agent>
    </dc:creator>
   </cc:Work>
  </rdf:RDF>
 </metadata>
 <defs>
  <style type="text/css">*{stroke-linejoin: round; stroke-linecap: butt}</style>
 </defs>
 <g id="figure_1">
  <g id="patch_1">
   <path d="M 0 288 
L 324 288 
L 324 0 
L 0 0 
L 0 288 
z
" style="fill: none"/>
  </g>
  <g id="axes_1">
   <g id="patch_2">
    <path d="M 40.5 252 
L 291.6 252 
L 291.6 34.56 
L 40.5 34.56 
z
" style="fill: #ffffff"/>
   </g>
   <g id="matplotlib.axis_1">
    <g id="xtick_1">
     <g id="line2d_1">
      <defs>
       <path id="m165c405d22" d="M 0 0 
L 0 3.5 
" style="stroke: #000000; stroke-width: 0.8"/>
      </defs>
      <g>
       <use xlink:href="#m165c405d22" x="71.8875" y="252" style="stroke: #000000; stroke-width: 0.8"/>
      </g>
     </g>
     <g id="text_1">
      <!-- 哔哩哔哩 -->
      <g transform="translate(51.8875 266.65625)scale(0.1 -0.1)">
       <defs>
        <path id="SimHei-54d4" d="M 1975 4525 
Q 1950 4000 1950 3475 
L 1950 1875 
Q 1950 1425 1975 850 
L 1475 850 
L 1475 1275 
L 775 1275 
L 775 400 
L 275 400 
Q 300 900 300 1425 
L 300 3475 
Q 300 4000 275 4525 
L 1975 4525 
z
M 5900 4275 
Q 5575 4075 4650 3425 
L 4650 2925 
Q 4650 2550 4875 2525 
Q 5100 2500 5375 2500 
Q 5650 2500 5700 3075 
Q 5875 2950 6175 2850 
Q 5950 2200 5687 2162 
Q 5425 2125 4900 2125 
Q 4400 2125 4287 2287 
Q 4175 2450 4200 2600 
L 4200 4600 
Q 4200 4875 4175 5150 
L 4675 5150 
Q 4650 4925 4650 4575 
L 4650 3900 
Q 5275 4375 5500 4700 
Q 5775 4375 5900 4275 
z
M 3800 1275 
Q 3800 1825 3750 2025 
L 4300 2025 
Q 4275 1825 4275 1275 
L 5375 1275 
Q 5750 1275 6175 1300 
L 6175 875 
Q 5775 900 5400 900 
L 4275 900 
L 4275 175 
Q 4275 -225 4300 -550 
L 3750 -550 
Q 3800 -225 3800 175 
L 3800 900 
L 2975 900 
Q 2650 900 2175 875 
L 2175 1300 
Q 2650 1275 2975 1275 
L 3800 1275 
z
M 3900 3725 
Q 3725 3750 3350 3750 
L 3025 3750 
L 3025 2600 
Q 3375 2775 3750 2975 
Q 3825 2650 3875 2525 
Q 3500 2425 3175 2250 
Q 2850 2075 2700 1925 
Q 2600 2050 2375 2375 
Q 2550 2475 2550 2975 
L 2550 4400 
Q 2550 4800 2525 5100 
L 3050 5100 
Q 3025 4950 3025 4125 
L 3375 4125 
Q 3725 4125 3900 4150 
L 3900 3725 
z
M 1475 1650 
L 1475 4150 
L 775 4150 
L 775 1650 
L 1475 1650 
z
" transform="scale(0.015625)"/>
        <path id="SimHei-54e9" d="M 5775 4875 
Q 5750 4575 5750 4050 
L 5750 2850 
Q 5750 2350 5775 1950 
L 4375 1950 
L 4375 1225 
L 5125 1225 
Q 5550 1225 5925 1250 
L 5925 800 
Q 5525 825 5125 825 
L 4375 825 
L 4375 0 
L 5275 0 
Q 5750 0 6125 25 
L 6125 -425 
Q 5800 -400 5300 -400 
L 3200 -400 
Q 2475 -400 2125 -425 
L 2125 25 
Q 2425 0 3075 0 
L 3900 0 
L 3900 825 
L 3325 825 
Q 2700 825 2425 800 
L 2425 1250 
Q 2675 1225 3300 1225 
L 3900 1225 
L 3900 1950 
L 2500 1950 
Q 2525 2375 2525 2850 
L 2525 4050 
Q 2525 4500 2500 4875 
L 5775 4875 
z
M 2100 4650 
Q 2075 4075 2075 3450 
L 2075 1625 
Q 2075 1125 2100 500 
L 1600 500 
L 1600 1075 
L 900 1075 
L 900 -25 
L 400 -25 
Q 425 525 425 1125 
L 425 3450 
Q 425 4075 400 4650 
L 2100 4650 
z
M 1600 1500 
L 1600 4225 
L 900 4225 
L 900 1500 
L 1600 1500 
z
M 3900 2350 
L 3900 3225 
L 3000 3225 
L 3000 2350 
L 3900 2350 
z
M 3900 3625 
L 3900 4500 
L 3000 4500 
L 3000 3625 
L 3900 3625 
z
M 5275 2350 
L 5275 3225 
L 4375 3225 
L 4375 2350 
L 5275 2350 
z
M 5275 3625 
L 5275 4500 
L 4375 4500 
L 4375 3625 
L 5275 3625 
z
" transform="scale(0.015625)"/>
       </defs>
       <use xlink:href="#SimHei-54d4"/>
       <use xlink:href="#SimHei-54e9" x="100"/>
       <use xlink:href="#SimHei-54d4" x="200"/>
       <use xlink:href="#SimHei-54e9" x="300"/>
      </g>
     </g>
    </g>
    <g id="xtick_2">
     <g id="line2d_2">
      <g>
       <use xlink:href="#m165c405d22" x="134.6625" y="252" style="stroke: #000000; stroke-width: 0.8"/>
      </g>
     </g>
     <g id="text_2">
      <!-- 今日头条 -->
      <g transform="translate(114.6625 267.242188)scale(0.1 -0.1)">
       <defs>
        <path id="SimHei-4eca" d="M 3450 4850 
Q 4675 3100 6125 2525 
Q 5875 2300 5725 2025 
Q 4200 2925 3200 4525 
Q 2325 3150 700 2000 
Q 550 2250 300 2400 
Q 1150 2825 1912 3600 
Q 2675 4375 3025 5275 
Q 3250 5175 3575 5050 
L 3450 4850 
z
M 5250 1900 
L 5250 1475 
Q 5075 1400 4425 537 
Q 3775 -325 3550 -775 
Q 3450 -675 3100 -425 
Q 3500 75 4450 1450 
L 2050 1450 
Q 1575 1450 1375 1425 
L 1375 1925 
Q 1575 1900 2075 1900 
L 5250 1900 
z
M 2925 3400 
Q 3425 2825 3750 2450 
Q 3525 2300 3300 2100 
Q 2925 2700 2550 3050 
Q 2825 3275 2925 3400 
z
" transform="scale(0.015625)"/>
        <path id="SimHei-65e5" d="M 5375 5000 
Q 5350 3775 5350 2275 
Q 5350 775 5375 -450 
L 4800 -450 
L 4800 175 
L 1800 175 
L 1800 -575 
L 1250 -575 
Q 1275 575 1275 2125 
Q 1275 3675 1250 5000 
L 5375 5000 
z
M 4800 600 
L 4800 2375 
L 1800 2375 
L 1800 600 
L 4800 600 
z
M 4800 2800 
L 4800 4550 
L 1800 4550 
L 1800 2800 
L 4800 2800 
z
" transform="scale(0.015625)"/>
        <path id="SimHei-5934" d="M 4175 5100 
Q 4000 4750 4000 4100 
Q 4000 3475 3875 2150 
L 5025 2150 
Q 5500 2150 6100 2175 
L 6100 1650 
Q 5500 1675 5075 1675 
L 3775 1675 
Q 3500 975 3075 575 
Q 2650 175 2162 -112 
Q 1675 -400 950 -700 
Q 825 -450 500 -250 
Q 1125 -175 2050 375 
Q 2975 925 3250 1675 
L 1425 1675 
Q 925 1675 375 1650 
L 375 2175 
Q 925 2150 1275 2150 
L 3400 2150 
Q 3450 2575 3487 3250 
Q 3525 3925 3525 5200 
Q 3800 5150 4175 5100 
z
M 4050 1150 
Q 4500 900 4975 575 
Q 5450 250 6000 -125 
Q 5825 -250 5650 -550 
Q 5200 -225 4750 112 
Q 4300 450 3750 750 
Q 3875 900 4050 1150 
z
M 975 3650 
Q 1850 3175 2325 2850 
Q 2100 2650 1950 2400 
Q 1725 2650 650 3250 
Q 850 3450 975 3650 
z
M 1650 4900 
Q 2375 4475 3000 4050 
Q 2800 3900 2650 3625 
Q 2150 4050 1350 4525 
Q 1525 4700 1650 4900 
z
" transform="scale(0.015625)"/>
        <path id="SimHei-6761" d="M 2700 5075 
Q 2600 5000 2400 4700 
L 5225 4700 
Q 4975 4300 4625 3875 
Q 4275 3450 3750 3050 
Q 4100 2850 4750 2687 
Q 5400 2525 6200 2525 
Q 5950 2275 5925 2000 
Q 5000 2100 4387 2300 
Q 3775 2500 3275 2825 
Q 2500 2375 1837 2175 
Q 1175 1975 575 1850 
Q 500 2125 275 2300 
Q 1250 2400 1912 2625 
Q 2575 2850 2825 3075 
Q 2400 3425 1925 3975 
Q 1600 3550 1150 3075 
Q 925 3300 725 3350 
Q 1225 3775 1625 4350 
Q 2025 4925 2125 5300 
Q 2525 5125 2700 5075 
z
M 2950 1775 
Q 2950 2000 2925 2400 
L 3475 2400 
Q 3450 1975 3450 1775 
L 4500 1775 
Q 5025 1775 5550 1800 
L 5550 1325 
Q 5025 1350 4525 1350 
L 3450 1350 
L 3450 -50 
Q 3475 -575 2450 -625 
Q 2375 -375 2225 -75 
Q 2975 -150 2950 200 
L 2950 1350 
L 1850 1350 
Q 1350 1350 825 1325 
L 825 1800 
Q 1350 1775 1850 1775 
L 2950 1775 
z
M 3300 3300 
Q 4025 3775 4325 4275 
L 2250 4275 
Q 2700 3675 3300 3300 
z
M 4200 1000 
Q 4950 575 5800 0 
Q 5650 -175 5500 -400 
Q 5150 -150 4787 100 
Q 4425 350 3925 600 
Q 4075 775 4200 1000 
z
M 2375 700 
Q 2275 600 1800 250 
Q 1325 -100 850 -400 
Q 700 -200 500 -50 
Q 825 100 1287 437 
Q 1750 775 1950 1050 
L 2375 700 
z
" transform="scale(0.015625)"/>
       </defs>
       <use xlink:href="#SimHei-4eca"/>
       <use xlink:href="#SimHei-65e5" x="100"/>
       <use xlink:href="#SimHei-5934" x="200"/>
       <use xlink:href="#SimHei-6761" x="300"/>
      </g>
     </g>
    </g>
    <g id="xtick_3">
     <g id="line2d_3">
      <g>
       <use xlink:href="#m165c405d22" x="197.4375" y="252" style="stroke: #000000; stroke-width: 0.8"/>
      </g>
     </g>
     <g id="text_3">
      <!-- 新浪微博 -->
      <g transform="translate(177.4375 267.085938)scale(0.1 -0.1)">
       <defs>
        <path id="SimHei-65b0" d="M 6125 4650 
Q 5750 4650 4275 4500 
L 4275 3225 
L 5575 3225 
Q 5850 3225 6150 3250 
L 6150 2775 
Q 5800 2800 5550 2800 
L 5550 225 
Q 5550 -200 5575 -675 
L 5050 -675 
Q 5075 -200 5075 200 
L 5075 2800 
L 4275 2800 
Q 4275 2175 4225 1600 
Q 4175 1025 4012 462 
Q 3850 -100 3525 -700 
Q 3275 -550 3025 -450 
Q 3425 125 3587 762 
Q 3750 1400 3775 1875 
Q 3800 2350 3800 3300 
Q 3800 4275 3775 4850 
Q 4900 4900 5800 5200 
Q 6000 4800 6125 4650 
z
M 2975 3825 
Q 2800 3725 2575 3050 
Q 3000 3050 3450 3075 
L 3450 2575 
Q 3025 2600 2175 2600 
L 2175 1975 
Q 2950 1975 3400 2000 
L 3400 1500 
Q 2950 1525 2175 1525 
L 2175 0 
Q 2175 -375 1937 -500 
Q 1700 -625 1325 -625 
Q 1225 -325 1075 -75 
Q 1425 -100 1562 -75 
Q 1700 -50 1700 150 
L 1700 1525 
Q 900 1525 450 1500 
L 450 2000 
Q 925 1975 1700 1975 
L 1700 2600 
Q 775 2600 325 2575 
L 325 3075 
Q 775 3050 1175 3050 
L 2125 3050 
Q 2325 3650 2425 3975 
Q 2625 3925 2975 3825 
z
M 2125 5275 
Q 2250 4750 2275 4550 
Q 2850 4550 3350 4575 
L 3350 4075 
Q 2825 4100 2500 4100 
L 1300 4100 
Q 875 4100 475 4075 
L 475 4575 
Q 900 4550 1300 4550 
L 1750 4550 
Q 1700 4825 1600 5125 
Q 1850 5200 2125 5275 
z
M 1525 1050 
Q 1375 875 1175 612 
Q 975 350 600 -125 
Q 425 50 225 175 
Q 750 750 1050 1375 
Q 1300 1175 1525 1050 
z
M 2725 1300 
Q 3025 900 3275 475 
Q 3025 350 2875 150 
Q 2675 600 2350 1025 
Q 2525 1175 2725 1300 
z
M 1275 3950 
Q 1450 3600 1575 3250 
Q 1350 3200 1150 3100 
Q 1025 3475 875 3775 
Q 1050 3875 1275 3950 
z
" transform="scale(0.015625)"/>
        <path id="SimHei-6d6a" d="M 3675 775 
Q 3750 450 3900 300 
Q 3650 100 3225 -187 
Q 2800 -475 2550 -650 
Q 2425 -450 2200 -225 
Q 2400 -50 2375 200 
L 2375 3325 
Q 2375 3875 2350 4350 
L 3775 4350 
Q 3575 4725 3300 5025 
Q 3575 5150 3750 5275 
Q 4075 4875 4250 4600 
Q 4075 4500 3850 4350 
L 5475 4350 
Q 5450 3950 5450 3050 
Q 5450 2175 5475 1875 
L 4025 1875 
Q 4175 1350 4475 950 
Q 5000 1300 5325 1675 
Q 5500 1500 5825 1325 
Q 5625 1225 5387 1062 
Q 5150 900 4800 625 
Q 5400 125 6150 0 
Q 5900 -250 5800 -550 
Q 4950 -225 4375 325 
Q 3800 875 3525 1875 
L 2850 1875 
L 2850 150 
Q 3300 425 3675 775 
z
M 4950 3300 
L 4950 3950 
L 2850 3950 
L 2850 3300 
L 4950 3300 
z
M 4950 2275 
L 4950 2900 
L 2850 2900 
L 2850 2275 
L 4950 2275 
z
M 1850 1350 
Q 1575 950 1275 425 
Q 975 -100 825 -500 
Q 525 -275 225 -75 
Q 500 175 875 737 
Q 1250 1300 1400 1725 
Q 1625 1500 1850 1350 
z
M 550 3300 
Q 1125 3050 1800 2650 
Q 1600 2450 1450 2200 
Q 950 2550 250 2875 
Q 400 3075 550 3300 
z
M 975 4875 
Q 1425 4575 2050 4150 
Q 1825 3975 1650 3700 
Q 1250 4100 575 4500 
Q 775 4675 975 4875 
z
" transform="scale(0.015625)"/>
        <path id="SimHei-5fae" d="M 4050 2075 
Q 3850 2250 3675 2300 
Q 4050 3025 4262 3837 
Q 4475 4650 4500 5175 
Q 4775 5075 5025 5050 
Q 4875 4700 4725 3850 
L 5525 3850 
Q 5800 3850 6050 3875 
L 6050 3475 
Q 5675 3500 5600 3500 
Q 5600 2800 5525 2162 
Q 5450 1525 5100 775 
Q 5225 525 5487 312 
Q 5750 100 6125 -75 
Q 5825 -275 5800 -525 
Q 5175 -150 4800 400 
Q 4275 -175 3625 -600 
Q 3450 -400 3150 -225 
Q 3675 0 3975 225 
Q 4275 450 4550 800 
Q 4275 1475 4200 2450 
L 4050 2075 
z
M 1875 3550 
Q 1650 3375 1375 2875 
L 1375 475 
Q 1375 25 1400 -550 
L 950 -550 
Q 975 25 975 475 
L 975 2300 
Q 750 2000 550 1700 
Q 425 1950 275 2100 
Q 575 2400 925 2900 
Q 1275 3400 1475 3925 
Q 1650 3650 1875 3550 
z
M 3450 1975 
Q 3425 1500 3425 725 
Q 3650 900 3850 1125 
L 4050 725 
Q 3875 625 3637 425 
Q 3400 225 3175 0 
L 2925 375 
Q 3050 475 3050 700 
L 3050 1650 
L 2500 1650 
Q 2500 1100 2412 662 
Q 2325 225 2000 -275 
Q 1825 -75 1600 25 
Q 1975 450 2037 1037 
Q 2100 1625 2075 1975 
L 3450 1975 
z
M 2350 4600 
Q 2325 4175 2325 3575 
L 2700 3575 
Q 2700 4575 2675 5100 
L 3100 5100 
Q 3075 4600 3075 3575 
L 3500 3575 
Q 3500 4075 3475 4600 
L 3875 4600 
Q 3850 4325 3850 3925 
Q 3850 3550 3875 3250 
L 1900 3250 
Q 1925 3600 1925 3925 
Q 1925 4250 1900 4600 
L 2350 4600 
z
M 4525 2825 
Q 4625 1775 4850 1200 
Q 5050 1700 5112 2212 
Q 5175 2725 5200 3500 
L 4625 3500 
Q 4525 3175 4350 2775 
L 4525 2825 
z
M 1700 4850 
Q 1275 4300 675 3625 
Q 525 3800 300 3925 
Q 1025 4575 1300 5150 
Q 1450 5000 1700 4850 
z
M 3700 2475 
Q 3325 2500 2750 2500 
Q 2175 2500 1800 2475 
L 1800 2850 
Q 2175 2825 2750 2825 
Q 3325 2825 3700 2850 
L 3700 2475 
z
" transform="scale(0.015625)"/>
        <path id="SimHei-535a" d="M 3600 4575 
Q 3600 5000 3575 5200 
L 4100 5200 
Q 4075 4950 4075 4575 
L 5075 4575 
Q 5650 4575 5925 4600 
L 5925 4150 
Q 5650 4175 5100 4175 
L 4075 4175 
L 4075 3775 
L 5525 3775 
Q 5500 3400 5500 3050 
L 5500 2500 
Q 5500 2025 5525 1725 
L 5050 1725 
L 5050 1975 
L 4075 1975 
Q 4075 1750 4100 1525 
L 3575 1525 
Q 3600 1775 3600 1975 
L 2775 1975 
L 2775 1550 
L 2275 1550 
Q 2300 1825 2300 2250 
L 2300 3025 
Q 2300 3500 2275 3775 
L 3600 3775 
L 3600 4175 
L 3075 4175 
Q 2575 4175 2100 4150 
L 2100 4600 
Q 2550 4575 3050 4575 
L 3600 4575 
z
M 950 4375 
Q 950 4825 925 5175 
L 1425 5175 
Q 1400 4750 1400 4375 
L 1400 3375 
Q 1725 3375 2050 3400 
L 2050 2925 
Q 1700 2950 1400 2950 
L 1400 250 
Q 1400 -225 1425 -500 
L 925 -500 
Q 950 -250 950 250 
L 950 2950 
Q 600 2950 250 2925 
L 250 3400 
Q 625 3375 950 3375 
L 950 4375 
z
M 4800 1225 
Q 4800 1425 4775 1625 
L 5275 1625 
Q 5250 1425 5250 1225 
L 5425 1225 
Q 5875 1225 6200 1250 
L 6200 775 
Q 5850 800 5425 800 
L 5250 800 
L 5250 -25 
Q 5250 -425 4987 -500 
Q 4725 -575 4325 -650 
Q 4275 -375 4125 -125 
Q 4550 -125 4675 -100 
Q 4800 -75 4800 200 
L 4800 800 
L 2700 800 
Q 2175 800 1875 750 
L 1875 1250 
Q 2175 1225 2700 1225 
L 4800 1225 
z
M 3075 750 
Q 3375 400 3600 100 
Q 3375 -50 3175 -200 
Q 2975 125 2675 475 
Q 2875 600 3075 750 
z
M 5050 2350 
L 5050 2700 
L 4075 2700 
L 4075 2350 
L 5050 2350 
z
M 5050 3075 
L 5050 3400 
L 4075 3400 
L 4075 3075 
L 5050 3075 
z
M 3600 2350 
L 3600 2700 
L 2775 2700 
L 2775 2350 
L 3600 2350 
z
M 3600 3075 
L 3600 3400 
L 2775 3400 
L 2775 3075 
L 3600 3075 
z
M 5000 4625 
Q 4800 4825 4650 5000 
L 5025 5250 
Q 5150 5075 5375 4850 
Q 5150 4750 5000 4625 
z
" transform="scale(0.015625)"/>
       </defs>
       <use xlink:href="#SimHei-65b0"/>
       <use xlink:href="#SimHei-6d6a" x="100"/>
       <use xlink:href="#SimHei-5fae" x="200"/>
       <use xlink:href="#SimHei-535a" x="300"/>
      </g>
     </g>
    </g>
    <g id="xtick_4">
     <g id="line2d_4">
      <g>
       <use xlink:href="#m165c405d22" x="260.2125" y="252" style="stroke: #000000; stroke-width: 0.8"/>
      </g>
     </g>
     <g id="text_4">
      <!-- 抖音 -->
      <g transform="translate(250.2125 266.96875)scale(0.1 -0.1)">
       <defs>
        <path id="SimHei-6296" d="M 2625 2575 
Q 2600 2350 2675 2125 
Q 2425 2025 1875 1850 
L 1875 150 
Q 1900 -150 1687 -312 
Q 1475 -475 875 -600 
Q 800 -350 650 -50 
Q 1050 -25 1212 25 
Q 1375 75 1375 300 
L 1375 1700 
Q 1150 1625 450 1325 
Q 400 1500 250 1900 
Q 1050 2050 1375 2175 
L 1375 3375 
Q 925 3375 425 3350 
L 425 3825 
Q 925 3800 1375 3800 
Q 1375 4525 1350 5125 
L 1925 5125 
Q 1875 4625 1875 3800 
Q 2200 3800 2775 3825 
L 2775 3350 
Q 2225 3375 1875 3375 
L 1875 2300 
Q 2100 2375 2625 2575 
z
M 2475 1100 
Q 2800 1125 4675 1400 
L 4675 4450 
Q 4675 4925 4650 5225 
L 5200 5225 
Q 5175 4950 5175 4475 
L 5175 1475 
Q 5775 1575 6125 1650 
L 6150 1200 
Q 5825 1150 5175 1025 
Q 5175 175 5200 -625 
L 4650 -625 
Q 4675 -25 4675 950 
Q 4275 900 2625 575 
L 2475 1100 
z
M 3575 4750 
Q 3675 4600 4250 3800 
Q 4125 3750 3775 3475 
Q 3650 3725 3150 4450 
Q 3375 4575 3575 4750 
z
M 3425 3025 
Q 3925 2400 4100 2175 
Q 3900 2025 3675 1825 
Q 3550 2050 3025 2675 
Q 3200 2825 3425 3025 
z
" transform="scale(0.015625)"/>
        <path id="SimHei-97f3" d="M 5100 2100 
Q 5075 1725 5075 1350 
L 5075 375 
Q 5075 -125 5100 -600 
L 4550 -600 
L 4550 -250 
L 1825 -250 
L 1825 -625 
L 1300 -625 
Q 1325 -100 1325 500 
L 1325 1350 
Q 1325 1675 1300 2100 
L 5100 2100 
z
M 4150 4050 
Q 4475 3900 4725 3825 
Q 4550 3550 4462 3387 
Q 4375 3225 4250 2975 
L 5050 2975 
Q 5550 2975 6000 3000 
L 6000 2575 
Q 5550 2600 5050 2600 
L 1375 2600 
Q 875 2600 425 2575 
L 425 3000 
Q 900 2975 1375 2975 
L 2100 2975 
Q 1900 3500 1650 3825 
Q 1875 3950 2075 4075 
Q 2400 3575 2625 3200 
Q 2450 3100 2250 2975 
L 3750 2975 
Q 4050 3650 4150 4050 
z
M 3250 5275 
Q 3425 4825 3475 4525 
L 4750 4525 
Q 5100 4525 5575 4550 
L 5575 4125 
Q 5075 4150 4750 4150 
L 1625 4150 
Q 1150 4150 700 4125 
L 700 4550 
Q 1150 4525 1625 4525 
L 2900 4525 
Q 2875 4825 2700 5150 
Q 2975 5200 3250 5275 
z
M 4550 125 
L 4550 725 
L 1825 725 
L 1825 125 
L 4550 125 
z
M 4550 1100 
L 4550 1700 
L 1825 1700 
L 1825 1100 
L 4550 1100 
z
" transform="scale(0.015625)"/>
       </defs>
       <use xlink:href="#SimHei-6296"/>
       <use xlink:href="#SimHei-97f3" x="100"/>
      </g>
     </g>
    </g>
    <g id="text_5">
     <!-- 平台 -->
     <g transform="translate(156.05 280.421875)scale(0.1 -0.1)">
      <defs>
       <path id="SimHei-5e73" d="M 4525 4825 
Q 4900 4825 5450 4850 
L 5450 4375 
Q 4925 4400 4525 4400 
L 3475 4400 
L 3475 2025 
L 5000 2025 
Q 5550 2025 6025 2050 
L 6025 1575 
Q 5550 1600 5000 1600 
L 3475 1600 
L 3475 450 
Q 3475 -100 3500 -600 
L 2925 -600 
Q 2950 -100 2950 450 
L 2950 1600 
L 1125 1600 
Q 775 1600 375 1575 
L 375 2050 
Q 775 2025 1175 2025 
L 2950 2025 
L 2950 4400 
L 1775 4400 
Q 1400 4400 875 4375 
L 875 4850 
Q 1400 4825 1750 4825 
L 4525 4825 
z
M 3925 2600 
Q 4500 3300 4900 4125 
Q 5150 3950 5400 3825 
Q 4775 2850 4350 2300 
Q 4150 2475 3925 2600 
z
M 1975 2350 
Q 1600 3100 1050 3725 
Q 1250 3875 1450 4050 
Q 2075 3300 2450 2725 
Q 2150 2500 1975 2350 
z
" transform="scale(0.015625)"/>
       <path id="SimHei-53f0" d="M 5300 2025 
Q 5275 1575 5275 725 
Q 5275 -100 5300 -550 
L 4750 -550 
L 4750 -200 
L 1675 -200 
L 1675 -575 
L 1125 -575 
Q 1150 -200 1150 575 
Q 1150 1375 1125 2025 
L 5300 2025 
z
M 3250 4900 
Q 3050 4750 2675 4300 
Q 2300 3850 1600 3125 
Q 2275 3150 2975 3187 
Q 3675 3225 4700 3300 
Q 4500 3600 3875 4150 
Q 4075 4275 4275 4525 
Q 5225 3550 5950 2725 
Q 5675 2575 5475 2350 
Q 5250 2700 5050 2875 
Q 3800 2800 2587 2712 
Q 1375 2625 900 2450 
Q 800 2925 650 3100 
Q 1000 3200 1587 3800 
Q 2175 4400 2650 5275 
Q 3000 5000 3250 4900 
z
M 4750 275 
L 4750 1550 
L 1675 1550 
L 1675 275 
L 4750 275 
z
" transform="scale(0.015625)"/>
      </defs>
      <use xlink:href="#SimHei-5e73"/>
      <use xlink:href="#SimHei-53f0" x="100"/>
     </g>
    </g>
   </g>
   <g id="matplotlib.axis_2">
    <g id="ytick_1">
     <g id="line2d_5">
      <path d="M 40.5 242.675603 
L 291.6 242.675603 
" clip-path="url(#p0adfd5a8c3)" style="fill: none; stroke: #b0b0b0; stroke-width: 0.8; stroke-linecap: square"/>
     </g>
     <g id="line2d_6">
      <defs>
       <path id="mf5c6ae19da" d="M 0 0 
L -3.5 0 
" style="stroke: #000000; stroke-width: 0.8"/>
      </defs>
      <g>
       <use xlink:href="#mf5c6ae19da" x="40.5" y="242.675603" style="stroke: #000000; stroke-width: 0.8"/>
      </g>
     </g>
     <g id="text_6">
      <!-- -1.00 -->
      <g transform="translate(8.5 246.113103)scale(0.1 -0.1)">
       <defs>
        <path id="SimHei-2d" d="M 2975 2125 
L 125 2125 
L 125 2525 
L 2975 2525 
L 2975 2125 
z
" transform="scale(0.015625)"/>
        <path id="SimHei-31" d="M 1400 3600 
Q 1075 3275 575 2975 
L 575 3450 
Q 1200 3875 1600 4450 
L 1900 4450 
L 1900 150 
L 1400 150 
L 1400 3600 
z
" transform="scale(0.015625)"/>
        <path id="SimHei-2e" d="M 1075 125 
L 500 125 
L 500 675 
L 1075 675 
L 1075 125 
z
" transform="scale(0.015625)"/>
        <path id="SimHei-30" d="M 225 2537 
Q 250 3200 412 3587 
Q 575 3975 875 4225 
Q 1175 4475 1612 4475 
Q 2050 4475 2375 4112 
Q 2700 3750 2800 3200 
Q 2900 2650 2862 1937 
Q 2825 1225 2612 775 
Q 2400 325 1975 150 
Q 1550 -25 1125 187 
Q 700 400 525 750 
Q 350 1100 275 1487 
Q 200 1875 225 2537 
z
M 750 2687 
Q 675 2000 800 1462 
Q 925 925 1212 700 
Q 1500 475 1800 612 
Q 2100 750 2237 1162 
Q 2375 1575 2375 2062 
Q 2375 2550 2337 2950 
Q 2300 3350 2112 3675 
Q 1925 4000 1612 4012 
Q 1300 4025 1062 3700 
Q 825 3375 750 2687 
z
" transform="scale(0.015625)"/>
       </defs>
       <use xlink:href="#SimHei-2d"/>
       <use xlink:href="#SimHei-31" x="50"/>
       <use xlink:href="#SimHei-2e" x="100"/>
       <use xlink:href="#SimHei-30" x="150"/>
       <use xlink:href="#SimHei-30" x="200"/>
      </g>
     </g>
    </g>
    <g id="ytick_2">
     <g id="line2d_7">
      <path d="M 40.5 217.820128 
L 291.6 217.820128 
" clip-path="url(#p0adfd5a8c3)" style="fill: none; stroke: #b0b0b0; stroke-width: 0.8; stroke-linecap: square"/>
     </g>
     <g id="line2d_8">
      <g>
       <use xlink:href="#mf5c6ae19da" x="40.5" y="217.820128" style="stroke: #000000; stroke-width: 0.8"/>
      </g>
     </g>
     <g id="text_7">
      <!-- -0.75 -->
      <g transform="translate(8.5 221.257628)scale(0.1 -0.1)">
       <defs>
        <path id="SimHei-37" d="M 850 150 
Q 1300 2050 2425 3925 
L 275 3925 
L 275 4375 
L 2950 4375 
L 2950 3950 
Q 1775 2050 1400 150 
L 850 150 
z
" transform="scale(0.015625)"/>
        <path id="SimHei-35" d="M 550 1325 
Q 725 650 1150 575 
Q 1575 500 1837 662 
Q 2100 825 2212 1087 
Q 2325 1350 2312 1675 
Q 2300 2000 2137 2225 
Q 1975 2450 1725 2525 
Q 1475 2600 1162 2525 
Q 850 2450 650 2175 
L 225 2225 
Q 275 2375 700 4375 
L 2675 4375 
L 2675 3925 
L 1075 3925 
Q 950 3250 825 2850 
Q 1200 3025 1525 3012 
Q 1850 3000 2150 2862 
Q 2450 2725 2587 2487 
Q 2725 2250 2787 2012 
Q 2850 1775 2837 1500 
Q 2825 1225 2725 937 
Q 2625 650 2425 462 
Q 2225 275 1937 162 
Q 1650 50 1275 75 
Q 900 100 562 350 
Q 225 600 100 1200 
L 550 1325 
z
" transform="scale(0.015625)"/>
       </defs>
       <use xlink:href="#SimHei-2d"/>
       <use xlink:href="#SimHei-30" x="50"/>
       <use xlink:href="#SimHei-2e" x="100"/>
       <use xlink:href="#SimHei-37" x="150"/>
       <use xlink:href="#SimHei-35" x="200"/>
      </g>
     </g>
    </g>
    <g id="ytick_3">
     <g id="line2d_9">
      <path d="M 40.5 192.964653 
L 291.6 192.964653 
" clip-path="url(#p0adfd5a8c3)" style="fill: none; stroke: #b0b0b0; stroke-width: 0.8; stroke-linecap: square"/>
     </g>
     <g id="line2d_10">
      <g>
       <use xlink:href="#mf5c6ae19da" x="40.5" y="192.964653" style="stroke: #000000; stroke-width: 0.8"/>
      </g>
     </g>
     <g id="text_8">
      <!-- -0.50 -->
      <g transform="translate(8.5 196.402153)scale(0.1 -0.1)">
       <use xlink:href="#SimHei-2d"/>
       <use xlink:href="#SimHei-30" x="50"/>
       <use xlink:href="#SimHei-2e" x="100"/>
       <use xlink:href="#SimHei-35" x="150"/>
       <use xlink:href="#SimHei-30" x="200"/>
      </g>
     </g>
    </g>
    <g id="ytick_4">
     <g id="line2d_11">
      <path d="M 40.5 168.109178 
L 291.6 168.109178 
" clip-path="url(#p0adfd5a8c3)" style="fill: none; stroke: #b0b0b0; stroke-width: 0.8; stroke-linecap: square"/>
     </g>
     <g id="line2d_12">
      <g>
       <use xlink:href="#mf5c6ae19da" x="40.5" y="168.109178" style="stroke: #000000; stroke-width: 0.8"/>
      </g>
     </g>
     <g id="text_9">
      <!-- -0.25 -->
      <g transform="translate(8.5 171.546678)scale(0.1 -0.1)">
       <defs>
        <path id="SimHei-32" d="M 300 250 
Q 325 625 650 925 
Q 975 1225 1475 1862 
Q 1975 2500 2125 2850 
Q 2275 3200 2237 3450 
Q 2200 3700 2000 3862 
Q 1800 4025 1537 4000 
Q 1275 3975 1037 3800 
Q 800 3625 675 3275 
L 200 3350 
Q 400 3925 712 4187 
Q 1025 4450 1450 4475 
Q 1700 4500 1900 4462 
Q 2100 4425 2312 4287 
Q 2525 4150 2662 3875 
Q 2800 3600 2762 3212 
Q 2725 2825 2375 2287 
Q 2025 1750 1025 600 
L 2825 600 
L 2825 150 
L 300 150 
L 300 250 
z
" transform="scale(0.015625)"/>
       </defs>
       <use xlink:href="#SimHei-2d"/>
       <use xlink:href="#SimHei-30" x="50"/>
       <use xlink:href="#SimHei-2e" x="100"/>
       <use xlink:href="#SimHei-32" x="150"/>
       <use xlink:href="#SimHei-35" x="200"/>
      </g>
     </g>
    </g>
    <g id="ytick_5">
     <g id="line2d_13">
      <path d="M 40.5 143.253703 
L 291.6 143.253703 
" clip-path="url(#p0adfd5a8c3)" style="fill: none; stroke: #b0b0b0; stroke-width: 0.8; stroke-linecap: square"/>
     </g>
     <g id="line2d_14">
      <g>
       <use xlink:href="#mf5c6ae19da" x="40.5" y="143.253703" style="stroke: #000000; stroke-width: 0.8"/>
      </g>
     </g>
     <g id="text_10">
      <!-- 0.00 -->
      <g transform="translate(13.5 146.691203)scale(0.1 -0.1)">
       <use xlink:href="#SimHei-30"/>
       <use xlink:href="#SimHei-2e" x="50"/>
       <use xlink:href="#SimHei-30" x="100"/>
       <use xlink:href="#SimHei-30" x="150"/>
      </g>
     </g>
    </g>
    <g id="ytick_6">
     <g id="line2d_15">
      <path d="M 40.5 118.398228 
L 291.6 118.398228 
" clip-path="url(#p0adfd5a8c3)" style="fill: none; stroke: #b0b0b0; stroke-width: 0.8; stroke-linecap: square"/>
     </g>
     <g id="line2d_16">
      <g>
       <use xlink:href="#mf5c6ae19da" x="40.5" y="118.398228" style="stroke: #000000; stroke-width: 0.8"/>
      </g>
     </g>
     <g id="text_11">
      <!-- 0.25 -->
      <g transform="translate(13.5 121.835728)scale(0.1 -0.1)">
       <use xlink:href="#SimHei-30"/>
       <use xlink:href="#SimHei-2e" x="50"/>
       <use xlink:href="#SimHei-32" x="100"/>
       <use xlink:href="#SimHei-35" x="150"/>
      </g>
     </g>
    </g>
    <g id="ytick_7">
     <g id="line2d_17">
      <path d="M 40.5 93.542753 
L 291.6 93.542753 
" clip-path="url(#p0adfd5a8c3)" style="fill: none; stroke: #b0b0b0; stroke-width: 0.8; stroke-linecap: square"/>
     </g>
     <g id="line2d_18">
      <g>
       <use xlink:href="#mf5c6ae19da" x="40.5" y="93.542753" style="stroke: #000000; stroke-width: 0.8"/>
      </g>
     </g>
     <g id="text_12">
      <!-- 0.50 -->
      <g transform="translate(13.5 96.980253)scale(0.1 -0.1)">
       <use xlink:href="#SimHei-30"/>
       <use xlink:href="#SimHei-2e" x="50"/>
       <use xlink:href="#SimHei-35" x="100"/>
       <use xlink:href="#SimHei-30" x="150"/>
      </g>
     </g>
    </g>
    <g id="ytick_8">
     <g id="line2d_19">
      <path d="M 40.5 68.687278 
L 291.6 68.687278 
" clip-path="url(#p0adfd5a8c3)" style="fill: none; stroke: #b0b0b0; stroke-width: 0.8; stroke-linecap: square"/>
     </g>
     <g id="line2d_20">
      <g>
       <use xlink:href="#mf5c6ae19da" x="40.5" y="68.687278" style="stroke: #000000; stroke-width: 0.8"/>
      </g>
     </g>
     <g id="text_13">
      <!-- 0.75 -->
      <g transform="translate(13.5 72.124778)scale(0.1 -0.1)">
       <use xlink:href="#SimHei-30"/>
       <use xlink:href="#SimHei-2e" x="50"/>
       <use xlink:href="#SimHei-37" x="100"/>
       <use xlink:href="#SimHei-35" x="150"/>
      </g>
     </g>
    </g>
    <g id="ytick_9">
     <g id="line2d_21">
      <path d="M 40.5 43.831803 
L 291.6 43.831803 
" clip-path="url(#p0adfd5a8c3)" style="fill: none; stroke: #b0b0b0; stroke-width: 0.8; stroke-linecap: square"/>
     </g>
     <g id="line2d_22">
      <g>
       <use xlink:href="#mf5c6ae19da" x="40.5" y="43.831803" style="stroke: #000000; stroke-width: 0.8"/>
      </g>
     </g>
     <g id="text_14">
      <!-- 1.00 -->
      <g transform="translate(13.5 47.269303)scale(0.1 -0.1)">
       <use xlink:href="#SimHei-31"/>
       <use xlink:href="#SimHei-2e" x="50"/>
       <use xlink:href="#SimHei-30" x="100"/>
       <use xlink:href="#SimHei-30" x="150"/>
      </g>
     </g>
    </g>
    <g id="text_15">
     <!-- 情感值 -->
     <g transform="translate(3.25 158.28)rotate(-90)scale(0.1 -0.1)">
      <defs>
       <path id="SimHei-60c5" d="M 2775 1475 
Q 2775 2050 2750 2525 
L 5600 2525 
Q 5575 2100 5575 1725 
L 5575 -150 
Q 5575 -425 5375 -500 
Q 5175 -575 4875 -625 
Q 4850 -400 4700 -150 
Q 5050 -150 5100 -75 
Q 5150 0 5150 475 
L 3225 475 
L 3225 -625 
L 2750 -625 
Q 2775 -50 2775 375 
L 2775 1475 
z
M 2375 3250 
Q 2975 3225 3475 3225 
L 3975 3225 
L 3975 3625 
L 3500 3625 
Q 3075 3625 2625 3600 
L 2625 4025 
Q 3075 4000 3500 4000 
L 3975 4000 
L 3975 4350 
L 3450 4350 
Q 3050 4350 2475 4325 
L 2475 4750 
Q 3075 4725 3450 4725 
L 3975 4725 
Q 3975 4975 3950 5225 
L 4475 5225 
Q 4450 4975 4450 4725 
L 5125 4725 
Q 5550 4725 5925 4750 
L 5925 4325 
Q 5550 4350 5125 4350 
L 4450 4350 
L 4450 4000 
L 4925 4000 
Q 5325 4000 5750 4025 
L 5750 3600 
Q 5300 3625 4925 3625 
L 4450 3625 
L 4450 3225 
L 5175 3225 
Q 5775 3225 6150 3250 
L 6150 2825 
Q 5775 2850 5150 2850 
L 3500 2850 
Q 2850 2850 2375 2825 
L 2375 3250 
z
M 1675 5225 
Q 1650 4800 1650 4400 
L 1650 425 
Q 1650 -100 1675 -600 
L 1150 -600 
Q 1200 -100 1200 425 
L 1200 4325 
Q 1200 4825 1150 5225 
L 1675 5225 
z
M 5125 850 
L 5125 1325 
L 3225 1325 
L 3225 850 
L 5125 850 
z
M 5125 1700 
L 5125 2150 
L 3225 2150 
L 3225 1700 
L 5125 1700 
z
M 1050 3900 
Q 1000 3675 725 2275 
Q 500 2350 250 2375 
Q 425 2750 575 3975 
Q 800 3925 1050 3900 
z
M 1975 3125 
Q 1925 3425 1775 3975 
Q 1950 4000 2200 4075 
Q 2350 3550 2450 3275 
Q 2175 3200 1975 3125 
z
" transform="scale(0.015625)"/>
       <path id="SimHei-611f" d="M 6125 1900 
Q 5900 1200 5725 1112 
Q 5550 1025 5237 1137 
Q 4925 1250 4425 1700 
Q 4125 1375 3725 1100 
Q 3550 1300 3350 1400 
Q 3875 1700 4175 2050 
Q 3900 2500 3762 3037 
Q 3625 3575 3575 4050 
L 1325 4050 
Q 1325 2925 1287 2525 
Q 1250 2125 1125 1775 
Q 1000 1425 750 1025 
Q 450 1225 275 1275 
Q 575 1650 712 2012 
Q 850 2375 875 2850 
Q 900 3325 875 4450 
L 3525 4450 
Q 3525 4650 3500 5175 
Q 3725 5125 4025 5100 
Q 3975 4800 4000 4450 
L 5100 4450 
Q 5450 4450 5925 4475 
L 5925 4025 
Q 5450 4050 5125 4050 
L 4025 4050 
Q 4125 3000 4450 2475 
Q 4600 2725 4725 3087 
Q 4850 3450 4925 3775 
Q 5175 3675 5450 3600 
Q 5350 3500 5187 3050 
Q 5025 2600 4725 2050 
Q 5000 1800 5212 1675 
Q 5425 1550 5487 1625 
Q 5550 1700 5650 2150 
Q 5850 1975 6125 1900 
z
M 3325 1600 
L 1575 1600 
L 1575 2875 
L 3325 2875 
L 3325 1600 
z
M 4875 175 
Q 4700 -325 4575 -412 
Q 4450 -500 4250 -500 
L 2350 -500 
Q 2025 -475 1962 -200 
Q 1900 75 1900 325 
Q 1900 575 1875 925 
L 2400 925 
Q 2375 500 2375 325 
Q 2375 175 2400 25 
Q 2425 -125 2725 -100 
L 3875 -100 
Q 4125 -100 4212 -12 
Q 4300 75 4350 450 
Q 4550 300 4875 175 
z
M 3300 3275 
L 1600 3275 
L 1600 3650 
L 3300 3650 
L 3300 3275 
z
M 5350 900 
Q 5900 225 6075 -50 
Q 5825 -200 5625 -350 
Q 5375 125 4950 600 
Q 5125 725 5350 900 
z
M 475 -175 
Q 700 100 975 925 
Q 1175 825 1450 725 
Q 1125 -25 950 -375 
Q 750 -275 475 -175 
z
M 2925 1950 
L 2925 2525 
L 1975 2525 
L 1975 1950 
L 2925 1950 
z
M 2725 1050 
Q 2875 1175 3100 1325 
Q 3525 775 3650 550 
Q 3450 425 3275 250 
Q 3125 525 2725 1050 
z
M 4900 4500 
Q 4750 4625 4350 4900 
Q 4500 5075 4600 5225 
Q 4775 5125 5200 4800 
Q 5050 4675 4900 4500 
z
" transform="scale(0.015625)"/>
       <path id="SimHei-503c" d="M 3675 4450 
L 3675 5100 
Q 3975 5075 4350 5050 
Q 4225 4875 4200 4450 
L 5125 4450 
Q 5550 4450 5875 4475 
L 5875 4025 
Q 5525 4050 5125 4050 
L 4175 4050 
L 4125 3500 
L 5400 3500 
Q 5375 3200 5375 2700 
L 5375 150 
Q 5875 150 6100 175 
L 6100 -275 
Q 5775 -250 5200 -250 
L 2850 -250 
Q 2275 -250 1900 -275 
L 1900 175 
Q 2125 150 2600 150 
L 2600 2700 
Q 2600 3175 2575 3500 
L 3600 3500 
L 3650 4050 
L 3200 4050 
Q 2575 4050 2225 4025 
L 2225 4475 
Q 2550 4450 3200 4450 
L 3675 4450 
z
M 2225 4900 
Q 2025 4675 1650 3750 
L 1650 450 
Q 1650 -75 1675 -550 
L 1150 -550 
Q 1175 -125 1175 375 
L 1175 2950 
Q 875 2450 625 2150 
Q 425 2425 250 2575 
Q 500 2825 937 3537 
Q 1375 4250 1625 5150 
Q 1975 4975 2225 4900 
z
M 4925 2650 
L 4925 3150 
L 3075 3150 
L 3075 2650 
L 4925 2650 
z
M 4925 150 
L 4925 625 
L 3075 625 
L 3075 150 
L 4925 150 
z
M 4925 1000 
L 4925 1450 
L 3075 1450 
L 3075 1000 
L 4925 1000 
z
M 4925 1825 
L 4925 2275 
L 3075 2275 
L 3075 1825 
L 4925 1825 
z
" transform="scale(0.015625)"/>
      </defs>
      <use xlink:href="#SimHei-60c5"/>
      <use xlink:href="#SimHei-611f" x="100"/>
      <use xlink:href="#SimHei-503c" x="200"/>
     </g>
    </g>
   </g>
   <g id="line2d_23">
    <path d="M 57.763125 214.851371 
L 86.011875 214.851371 
L 86.011875 86.754682 
L 57.763125 86.754682 
L 57.763125 214.851371 
" clip-path="url(#p0adfd5a8c3)" style="fill: none; stroke: #000000; stroke-linecap: square"/>
   </g>
   <g id="line2d_24">
    <path d="M 71.8875 214.851371 
L 71.8875 241.962495 
" clip-path="url(#p0adfd5a8c3)" style="fill: none; stroke: #000000; stroke-linecap: square"/>
   </g>
   <g id="line2d_25">
    <path d="M 71.8875 86.754682 
L 71.8875 45.351583 
" clip-path="url(#p0adfd5a8c3)" style="fill: none; stroke: #000000; stroke-linecap: square"/>
   </g>
   <g id="line2d_26">
    <path d="M 64.825312 241.962495 
L 78.949688 241.962495 
" clip-path="url(#p0adfd5a8c3)" style="fill: none; stroke: #000000; stroke-linecap: square"/>
   </g>
   <g id="line2d_27">
    <path d="M 64.825312 45.351583 
L 78.949688 45.351583 
" clip-path="url(#p0adfd5a8c3)" style="fill: none; stroke: #000000; stroke-linecap: square"/>
   </g>
   <g id="line2d_28"/>
   <g id="line2d_29">
    <path d="M 120.538125 214.671302 
L 148.786875 214.671302 
L 148.786875 78.027391 
L 120.538125 78.027391 
L 120.538125 214.671302 
" clip-path="url(#p0adfd5a8c3)" style="fill: none; stroke: #000000; stroke-linecap: square"/>
   </g>
   <g id="line2d_30">
    <path d="M 134.6625 214.671302 
L 134.6625 241.942633 
" clip-path="url(#p0adfd5a8c3)" style="fill: none; stroke: #000000; stroke-linecap: square"/>
   </g>
   <g id="line2d_31">
    <path d="M 134.6625 78.027391 
L 134.6625 46.32498 
" clip-path="url(#p0adfd5a8c3)" style="fill: none; stroke: #000000; stroke-linecap: square"/>
   </g>
   <g id="line2d_32">
    <path d="M 127.600313 241.942633 
L 141.724688 241.942633 
" clip-path="url(#p0adfd5a8c3)" style="fill: none; stroke: #000000; stroke-linecap: square"/>
   </g>
   <g id="line2d_33">
    <path d="M 127.600313 46.32498 
L 141.724688 46.32498 
" clip-path="url(#p0adfd5a8c3)" style="fill: none; stroke: #000000; stroke-linecap: square"/>
   </g>
   <g id="line2d_34"/>
   <g id="line2d_35">
    <path d="M 183.313125 200.016634 
L 211.561875 200.016634 
L 211.561875 77.866791 
L 183.313125 77.866791 
L 183.313125 200.016634 
" clip-path="url(#p0adfd5a8c3)" style="fill: none; stroke: #000000; stroke-linecap: square"/>
   </g>
   <g id="line2d_36">
    <path d="M 197.4375 200.016634 
L 197.4375 242.065018 
" clip-path="url(#p0adfd5a8c3)" style="fill: none; stroke: #000000; stroke-linecap: square"/>
   </g>
   <g id="line2d_37">
    <path d="M 197.4375 77.866791 
L 197.4375 44.889492 
" clip-path="url(#p0adfd5a8c3)" style="fill: none; stroke: #000000; stroke-linecap: square"/>
   </g>
   <g id="line2d_38">
    <path d="M 190.375313 242.065018 
L 204.499687 242.065018 
" clip-path="url(#p0adfd5a8c3)" style="fill: none; stroke: #000000; stroke-linecap: square"/>
   </g>
   <g id="line2d_39">
    <path d="M 190.375313 44.889492 
L 204.499687 44.889492 
" clip-path="url(#p0adfd5a8c3)" style="fill: none; stroke: #000000; stroke-linecap: square"/>
   </g>
   <g id="line2d_40"/>
   <g id="line2d_41">
    <path d="M 246.088125 214.618374 
L 274.336875 214.618374 
L 274.336875 85.118363 
L 246.088125 85.118363 
L 246.088125 214.618374 
" clip-path="url(#p0adfd5a8c3)" style="fill: none; stroke: #000000; stroke-linecap: square"/>
   </g>
   <g id="line2d_42">
    <path d="M 260.2125 214.618374 
L 260.2125 242.116364 
" clip-path="url(#p0adfd5a8c3)" style="fill: none; stroke: #000000; stroke-linecap: square"/>
   </g>
   <g id="line2d_43">
    <path d="M 260.2125 85.118363 
L 260.2125 44.443636 
" clip-path="url(#p0adfd5a8c3)" style="fill: none; stroke: #000000; stroke-linecap: square"/>
   </g>
   <g id="line2d_44">
    <path d="M 253.150313 242.116364 
L 267.274688 242.116364 
" clip-path="url(#p0adfd5a8c3)" style="fill: none; stroke: #000000; stroke-linecap: square"/>
   </g>
   <g id="line2d_45">
    <path d="M 253.150313 44.443636 
L 267.274688 44.443636 
" clip-path="url(#p0adfd5a8c3)" style="fill: none; stroke: #000000; stroke-linecap: square"/>
   </g>
   <g id="line2d_46"/>
   <g id="line2d_47">
    <path d="M 57.763125 136.197208 
L 86.011875 136.197208 
" clip-path="url(#p0adfd5a8c3)" style="fill: none; stroke: #ff7f0e; stroke-linecap: square"/>
   </g>
   <g id="line2d_48">
    <path d="M 120.538125 124.126072 
L 148.786875 124.126072 
" clip-path="url(#p0adfd5a8c3)" style="fill: none; stroke: #ff7f0e; stroke-linecap: square"/>
   </g>
   <g id="line2d_49">
    <path d="M 183.313125 117.395254 
L 211.561875 117.395254 
" clip-path="url(#p0adfd5a8c3)" style="fill: none; stroke: #ff7f0e; stroke-linecap: square"/>
   </g>
   <g id="line2d_50">
    <path d="M 246.088125 135.682623 
L 274.336875 135.682623 
" clip-path="url(#p0adfd5a8c3)" style="fill: none; stroke: #ff7f0e; stroke-linecap: square"/>
   </g>
   <g id="patch_3">
    <path d="M 40.5 252 
L 40.5 34.56 
" style="fill: none; stroke: #000000; stroke-width: 0.8; stroke-linejoin: miter; stroke-linecap: square"/>
   </g>
   <g id="patch_4">
    <path d="M 291.6 252 
L 291.6 34.56 
" style="fill: none; stroke: #000000; stroke-width: 0.8; stroke-linejoin: miter; stroke-linecap: square"/>
   </g>
   <g id="patch_5">
    <path d="M 40.5 252 
L 291.6 252 
" style="fill: none; stroke: #000000; stroke-width: 0.8; stroke-linejoin: miter; stroke-linecap: square"/>
   </g>
   <g id="patch_6">
    <path d="M 40.5 34.56 
L 291.6 34.56 
" style="fill: none; stroke: #000000; stroke-width: 0.8; stroke-linejoin: miter; stroke-linecap: square"/>
   </g>
  </g>
 </g>
 <defs>
  <clipPath id="p0adfd5a8c3">
   <rect x="40.5" y="34.56" width="251.1" height="217.44"/>
  </clipPath>
 </defs>
</svg>
