<?xml version="1.0" encoding="utf-8" standalone="no"?>
<!DOCTYPE svg PUBLIC "-//W3C//DTD SVG 1.1//EN"
  "http://www.w3.org/Graphics/SVG/1.1/DTD/svg11.dtd">
<svg xmlns:xlink="http://www.w3.org/1999/xlink" width="648pt" height="288pt" viewBox="0 0 648 288" xmlns="http://www.w3.org/2000/svg" version="1.1">
 <metadata>
  <rdf:RDF xmlns:dc="http://purl.org/dc/elements/1.1/" xmlns:cc="http://creativecommons.org/ns#" xmlns:rdf="http://www.w3.org/1999/02/22-rdf-syntax-ns#">
   <cc:Work>
    <dc:type rdf:resource="http://purl.org/dc/dcmitype/StillImage"/>
    <dc:date>2022-07-25T13:12:14.020319</dc:date>
    <dc:format>image/svg+xml</dc:format>
    <dc:creator>
     <cc:Agent>
      <dc:title>Matplotlib v3.5.1, https://matplotlib.org/</dc:title>
     </cc:Agent>
    </dc:creator>
   </cc:Work>
  </rdf:RDF>
 </metadata>
 <defs>
  <style type="text/css">*{stroke-linejoin: round; stroke-linecap: butt}</style>
 </defs>
 <g id="figure_1">
  <g id="patch_1">
   <path d="M 0 288 
L 648 288 
L 648 0 
L 0 0 
L 0 288 
z
" style="fill: none"/>
  </g>
  <g id="axes_1">
   <g id="patch_2">
    <path d="M 81 252 
L 583.2 252 
L 583.2 34.56 
L 81 34.56 
z
" style="fill: #ffffff"/>
   </g>
   <g id="PolyCollection_1">
    <path d="M 103.827273 252 
L 103.827273 252 
L 138.946154 252 
L 174.065035 252 
L 209.183916 252 
L 244.302797 252 
L 279.421678 252 
L 314.540559 252 
L 349.659441 252 
L 384.778322 252 
L 419.897203 252 
L 455.016084 252 
L 490.134965 252 
L 525.253846 252 
L 560.372727 252 
L 560.372727 252 
L 560.372727 252 
L 525.253846 250.619507 
L 490.134965 251.646027 
L 455.016084 251.35105 
L 419.897203 251.657827 
L 384.778322 251.823014 
L 349.659441 251.657827 
L 314.540559 251.988201 
L 279.421678 252 
L 244.302797 252 
L 209.183916 252 
L 174.065035 252 
L 138.946154 252 
L 103.827273 252 
z
" clip-path="url(#pf10ba35d69)" style="fill: #1f77b4; fill-opacity: 0.8"/>
   </g>
   <g id="PolyCollection_2">
    <path d="M 103.827273 252 
L 103.827273 252 
L 138.946154 252 
L 174.065035 252 
L 209.183916 252 
L 244.302797 252 
L 279.421678 252 
L 314.540559 251.988201 
L 349.659441 251.657827 
L 384.778322 251.823014 
L 419.897203 251.657827 
L 455.016084 251.35105 
L 490.134965 251.646027 
L 525.253846 250.619507 
L 560.372727 252 
L 560.372727 252 
L 560.372727 252 
L 525.253846 250.005955 
L 490.134965 250.029553 
L 455.016084 248.625462 
L 419.897203 248.177097 
L 384.778322 248.731654 
L 349.659441 250.383526 
L 314.540559 250.855489 
L 279.421678 251.10327 
L 244.302797 252 
L 209.183916 252 
L 174.065035 252 
L 138.946154 252 
L 103.827273 252 
z
" clip-path="url(#pf10ba35d69)" style="fill: #ff7f0e; fill-opacity: 0.8"/>
   </g>
   <g id="PolyCollection_3">
    <path d="M 103.827273 251.929205 
L 103.827273 252 
L 138.946154 252 
L 174.065035 252 
L 209.183916 252 
L 244.302797 252 
L 279.421678 251.10327 
L 314.540559 250.855489 
L 349.659441 250.383526 
L 384.778322 248.731654 
L 419.897203 248.177097 
L 455.016084 248.625462 
L 490.134965 250.029553 
L 525.253846 250.005955 
L 560.372727 252 
L 560.372727 252 
L 560.372727 252 
L 525.253846 250.005955 
L 490.134965 249.616585 
L 455.016084 247.221371 
L 419.897203 175.152569 
L 384.778322 234.065393 
L 349.659441 238.47825 
L 314.540559 240.495894 
L 279.421678 247.469152 
L 244.302797 247.823124 
L 209.183916 248.342284 
L 174.065035 251.646027 
L 138.946154 251.752219 
L 103.827273 251.929205 
z
" clip-path="url(#pf10ba35d69)" style="fill: #2ca02c; fill-opacity: 0.8"/>
   </g>
   <g id="PolyCollection_4">
    <path d="M 103.827273 251.87021 
L 103.827273 251.929205 
L 138.946154 251.752219 
L 174.065035 251.646027 
L 209.183916 248.342284 
L 244.302797 247.823124 
L 279.421678 247.469152 
L 314.540559 240.495894 
L 349.659441 238.47825 
L 384.778322 234.065393 
L 419.897203 175.152569 
L 455.016084 247.221371 
L 490.134965 249.616585 
L 525.253846 250.005955 
L 560.372727 252 
L 560.372727 246.890997 
L 560.372727 246.890997 
L 525.253846 178.692294 
L 490.134965 157.560136 
L 455.016084 94.623824 
L 419.897203 44.914286 
L 384.778322 67.214554 
L 349.659441 181.889846 
L 314.540559 208.414186 
L 279.421678 222.3843 
L 244.302797 194.904235 
L 209.183916 162.905121 
L 174.065035 243.315875 
L 138.946154 246.501627 
L 103.827273 251.87021 
z
" clip-path="url(#pf10ba35d69)" style="fill: #d62728; fill-opacity: 0.8"/>
   </g>
   <g id="matplotlib.axis_1">
    <g id="xtick_1">
     <g id="line2d_1">
      <defs>
       <path id="m758a748ec3" d="M 0 0 
L 0 3.5 
" style="stroke: #000000; stroke-width: 0.8"/>
      </defs>
      <g>
       <use xlink:href="#m758a748ec3" x="103.827273" y="252" style="stroke: #000000; stroke-width: 0.8"/>
      </g>
     </g>
     <g id="text_1">
      <!-- 06-07 -->
      <g transform="translate(91.327273 265.875)scale(0.1 -0.1)">
       <defs>
        <path id="SimHei-30" d="M 225 2537 
Q 250 3200 412 3587 
Q 575 3975 875 4225 
Q 1175 4475 1612 4475 
Q 2050 4475 2375 4112 
Q 2700 3750 2800 3200 
Q 2900 2650 2862 1937 
Q 2825 1225 2612 775 
Q 2400 325 1975 150 
Q 1550 -25 1125 187 
Q 700 400 525 750 
Q 350 1100 275 1487 
Q 200 1875 225 2537 
z
M 750 2687 
Q 675 2000 800 1462 
Q 925 925 1212 700 
Q 1500 475 1800 612 
Q 2100 750 2237 1162 
Q 2375 1575 2375 2062 
Q 2375 2550 2337 2950 
Q 2300 3350 2112 3675 
Q 1925 4000 1612 4012 
Q 1300 4025 1062 3700 
Q 825 3375 750 2687 
z
" transform="scale(0.015625)"/>
        <path id="SimHei-36" d="M 250 1612 
Q 275 1975 387 2225 
Q 500 2475 725 2850 
L 1750 4450 
L 2325 4450 
L 1275 2800 
Q 1950 2975 2350 2750 
Q 2750 2525 2887 2237 
Q 3025 1950 3037 1612 
Q 3050 1275 2937 950 
Q 2825 625 2537 362 
Q 2250 100 1737 75 
Q 1225 50 862 262 
Q 500 475 362 862 
Q 225 1250 250 1612 
z
M 1025 787 
Q 1250 550 1625 525 
Q 2000 500 2250 775 
Q 2500 1050 2500 1575 
Q 2500 2100 2187 2300 
Q 1875 2500 1487 2450 
Q 1100 2400 925 2075 
Q 750 1750 775 1387 
Q 800 1025 1025 787 
z
" transform="scale(0.015625)"/>
        <path id="SimHei-2d" d="M 2975 2125 
L 125 2125 
L 125 2525 
L 2975 2525 
L 2975 2125 
z
" transform="scale(0.015625)"/>
        <path id="SimHei-37" d="M 850 150 
Q 1300 2050 2425 3925 
L 275 3925 
L 275 4375 
L 2950 4375 
L 2950 3950 
Q 1775 2050 1400 150 
L 850 150 
z
" transform="scale(0.015625)"/>
       </defs>
       <use xlink:href="#SimHei-30"/>
       <use xlink:href="#SimHei-36" x="50"/>
       <use xlink:href="#SimHei-2d" x="100"/>
       <use xlink:href="#SimHei-30" x="150"/>
       <use xlink:href="#SimHei-37" x="200"/>
      </g>
     </g>
    </g>
    <g id="xtick_2">
     <g id="line2d_2">
      <g>
       <use xlink:href="#m758a748ec3" x="138.946154" y="252" style="stroke: #000000; stroke-width: 0.8"/>
      </g>
     </g>
     <g id="text_2">
      <!-- 06-08 -->
      <g transform="translate(126.446154 265.875)scale(0.1 -0.1)">
       <defs>
        <path id="SimHei-38" d="M 175 1375 
Q 175 1675 325 1962 
Q 475 2250 825 2425 
Q 525 2600 425 2812 
Q 325 3025 312 3300 
Q 300 3575 387 3775 
Q 475 3975 650 4150 
Q 825 4325 1037 4387 
Q 1250 4450 1500 4450 
Q 1750 4450 1950 4400 
Q 2150 4350 2375 4187 
Q 2600 4025 2700 3725 
Q 2800 3425 2687 3025 
Q 2575 2625 2100 2400 
Q 2525 2275 2700 2012 
Q 2875 1750 2875 1375 
Q 2875 1000 2762 775 
Q 2650 550 2512 400 
Q 2375 250 2137 162 
Q 1900 75 1537 75 
Q 1175 75 912 162 
Q 650 250 475 425 
Q 300 600 237 837 
Q 175 1075 175 1375 
z
M 687 1400 
Q 675 1100 787 875 
Q 900 650 1200 587 
Q 1500 525 1825 600 
Q 2150 675 2275 950 
Q 2400 1225 2362 1500 
Q 2325 1775 2050 1962 
Q 1775 2150 1450 2125 
Q 1125 2100 912 1900 
Q 700 1700 687 1400 
z
M 775 3350 
Q 775 3100 950 2875 
Q 1125 2650 1500 2650 
Q 1875 2650 2062 2875 
Q 2250 3100 2237 3412 
Q 2225 3725 2012 3875 
Q 1800 4025 1437 4000 
Q 1075 3975 925 3787 
Q 775 3600 775 3350 
z
" transform="scale(0.015625)"/>
       </defs>
       <use xlink:href="#SimHei-30"/>
       <use xlink:href="#SimHei-36" x="50"/>
       <use xlink:href="#SimHei-2d" x="100"/>
       <use xlink:href="#SimHei-30" x="150"/>
       <use xlink:href="#SimHei-38" x="200"/>
      </g>
     </g>
    </g>
    <g id="xtick_3">
     <g id="line2d_3">
      <g>
       <use xlink:href="#m758a748ec3" x="174.065035" y="252" style="stroke: #000000; stroke-width: 0.8"/>
      </g>
     </g>
     <g id="text_3">
      <!-- 06-09 -->
      <g transform="translate(161.565035 265.875)scale(0.1 -0.1)">
       <defs>
        <path id="SimHei-39" d="M 800 75 
Q 1350 1000 1700 1750 
Q 1075 1650 662 1912 
Q 250 2175 162 2625 
Q 75 3075 175 3437 
Q 275 3800 487 4037 
Q 700 4275 1000 4375 
Q 1300 4475 1537 4475 
Q 1775 4475 2025 4375 
Q 2275 4275 2475 4075 
Q 2675 3875 2750 3662 
Q 2825 3450 2825 3112 
Q 2825 2775 2575 2250 
Q 2325 1725 1350 75 
L 800 75 
z
M 662 2875 
Q 700 2550 937 2337 
Q 1175 2125 1450 2150 
Q 1725 2175 1887 2300 
Q 2050 2425 2200 2725 
Q 2300 3100 2250 3362 
Q 2200 3625 1987 3800 
Q 1775 3975 1525 3975 
Q 1375 4000 1137 3900 
Q 900 3800 762 3500 
Q 625 3200 662 2875 
z
" transform="scale(0.015625)"/>
       </defs>
       <use xlink:href="#SimHei-30"/>
       <use xlink:href="#SimHei-36" x="50"/>
       <use xlink:href="#SimHei-2d" x="100"/>
       <use xlink:href="#SimHei-30" x="150"/>
       <use xlink:href="#SimHei-39" x="200"/>
      </g>
     </g>
    </g>
    <g id="xtick_4">
     <g id="line2d_4">
      <g>
       <use xlink:href="#m758a748ec3" x="209.183916" y="252" style="stroke: #000000; stroke-width: 0.8"/>
      </g>
     </g>
     <g id="text_4">
      <!-- 06-10 -->
      <g transform="translate(196.683916 265.875)scale(0.1 -0.1)">
       <defs>
        <path id="SimHei-31" d="M 1400 3600 
Q 1075 3275 575 2975 
L 575 3450 
Q 1200 3875 1600 4450 
L 1900 4450 
L 1900 150 
L 1400 150 
L 1400 3600 
z
" transform="scale(0.015625)"/>
       </defs>
       <use xlink:href="#SimHei-30"/>
       <use xlink:href="#SimHei-36" x="50"/>
       <use xlink:href="#SimHei-2d" x="100"/>
       <use xlink:href="#SimHei-31" x="150"/>
       <use xlink:href="#SimHei-30" x="200"/>
      </g>
     </g>
    </g>
    <g id="xtick_5">
     <g id="line2d_5">
      <g>
       <use xlink:href="#m758a748ec3" x="244.302797" y="252" style="stroke: #000000; stroke-width: 0.8"/>
      </g>
     </g>
     <g id="text_5">
      <!-- 06-11 -->
      <g transform="translate(231.802797 265.875)scale(0.1 -0.1)">
       <use xlink:href="#SimHei-30"/>
       <use xlink:href="#SimHei-36" x="50"/>
       <use xlink:href="#SimHei-2d" x="100"/>
       <use xlink:href="#SimHei-31" x="150"/>
       <use xlink:href="#SimHei-31" x="200"/>
      </g>
     </g>
    </g>
    <g id="xtick_6">
     <g id="line2d_6">
      <g>
       <use xlink:href="#m758a748ec3" x="279.421678" y="252" style="stroke: #000000; stroke-width: 0.8"/>
      </g>
     </g>
     <g id="text_6">
      <!-- 06-12 -->
      <g transform="translate(266.921678 265.875)scale(0.1 -0.1)">
       <defs>
        <path id="SimHei-32" d="M 300 250 
Q 325 625 650 925 
Q 975 1225 1475 1862 
Q 1975 2500 2125 2850 
Q 2275 3200 2237 3450 
Q 2200 3700 2000 3862 
Q 1800 4025 1537 4000 
Q 1275 3975 1037 3800 
Q 800 3625 675 3275 
L 200 3350 
Q 400 3925 712 4187 
Q 1025 4450 1450 4475 
Q 1700 4500 1900 4462 
Q 2100 4425 2312 4287 
Q 2525 4150 2662 3875 
Q 2800 3600 2762 3212 
Q 2725 2825 2375 2287 
Q 2025 1750 1025 600 
L 2825 600 
L 2825 150 
L 300 150 
L 300 250 
z
" transform="scale(0.015625)"/>
       </defs>
       <use xlink:href="#SimHei-30"/>
       <use xlink:href="#SimHei-36" x="50"/>
       <use xlink:href="#SimHei-2d" x="100"/>
       <use xlink:href="#SimHei-31" x="150"/>
       <use xlink:href="#SimHei-32" x="200"/>
      </g>
     </g>
    </g>
    <g id="xtick_7">
     <g id="line2d_7">
      <g>
       <use xlink:href="#m758a748ec3" x="314.540559" y="252" style="stroke: #000000; stroke-width: 0.8"/>
      </g>
     </g>
     <g id="text_7">
      <!-- 06-13 -->
      <g transform="translate(302.040559 265.875)scale(0.1 -0.1)">
       <defs>
        <path id="SimHei-33" d="M 250 1225 
L 700 1300 
Q 800 975 1025 762 
Q 1250 550 1587 562 
Q 1925 575 2125 837 
Q 2325 1100 2300 1437 
Q 2275 1775 2037 1962 
Q 1800 2150 1275 2225 
L 1275 2550 
Q 1800 2600 2037 2825 
Q 2275 3050 2250 3412 
Q 2225 3775 1925 3937 
Q 1625 4100 1287 3975 
Q 950 3850 750 3275 
L 300 3350 
Q 450 3800 712 4100 
Q 975 4400 1425 4450 
Q 1875 4500 2212 4337 
Q 2550 4175 2687 3837 
Q 2825 3500 2725 3100 
Q 2625 2700 2150 2400 
Q 2500 2250 2687 1950 
Q 2875 1650 2812 1162 
Q 2750 675 2375 375 
Q 2000 75 1525 87 
Q 1050 100 700 387 
Q 350 675 250 1225 
z
" transform="scale(0.015625)"/>
       </defs>
       <use xlink:href="#SimHei-30"/>
       <use xlink:href="#SimHei-36" x="50"/>
       <use xlink:href="#SimHei-2d" x="100"/>
       <use xlink:href="#SimHei-31" x="150"/>
       <use xlink:href="#SimHei-33" x="200"/>
      </g>
     </g>
    </g>
    <g id="xtick_8">
     <g id="line2d_8">
      <g>
       <use xlink:href="#m758a748ec3" x="349.659441" y="252" style="stroke: #000000; stroke-width: 0.8"/>
      </g>
     </g>
     <g id="text_8">
      <!-- 06-14 -->
      <g transform="translate(337.159441 265.875)scale(0.1 -0.1)">
       <defs>
        <path id="SimHei-34" d="M 2000 1100 
L 75 1100 
L 75 1525 
L 2100 4450 
L 2475 4450 
L 2475 1525 
L 3075 1525 
L 3075 1100 
L 2475 1100 
L 2475 150 
L 2000 150 
L 2000 1100 
z
M 2000 1525 
L 2000 3500 
L 600 1525 
L 2000 1525 
z
" transform="scale(0.015625)"/>
       </defs>
       <use xlink:href="#SimHei-30"/>
       <use xlink:href="#SimHei-36" x="50"/>
       <use xlink:href="#SimHei-2d" x="100"/>
       <use xlink:href="#SimHei-31" x="150"/>
       <use xlink:href="#SimHei-34" x="200"/>
      </g>
     </g>
    </g>
    <g id="xtick_9">
     <g id="line2d_9">
      <g>
       <use xlink:href="#m758a748ec3" x="384.778322" y="252" style="stroke: #000000; stroke-width: 0.8"/>
      </g>
     </g>
     <g id="text_9">
      <!-- 06-15 -->
      <g transform="translate(372.278322 265.875)scale(0.1 -0.1)">
       <defs>
        <path id="SimHei-35" d="M 550 1325 
Q 725 650 1150 575 
Q 1575 500 1837 662 
Q 2100 825 2212 1087 
Q 2325 1350 2312 1675 
Q 2300 2000 2137 2225 
Q 1975 2450 1725 2525 
Q 1475 2600 1162 2525 
Q 850 2450 650 2175 
L 225 2225 
Q 275 2375 700 4375 
L 2675 4375 
L 2675 3925 
L 1075 3925 
Q 950 3250 825 2850 
Q 1200 3025 1525 3012 
Q 1850 3000 2150 2862 
Q 2450 2725 2587 2487 
Q 2725 2250 2787 2012 
Q 2850 1775 2837 1500 
Q 2825 1225 2725 937 
Q 2625 650 2425 462 
Q 2225 275 1937 162 
Q 1650 50 1275 75 
Q 900 100 562 350 
Q 225 600 100 1200 
L 550 1325 
z
" transform="scale(0.015625)"/>
       </defs>
       <use xlink:href="#SimHei-30"/>
       <use xlink:href="#SimHei-36" x="50"/>
       <use xlink:href="#SimHei-2d" x="100"/>
       <use xlink:href="#SimHei-31" x="150"/>
       <use xlink:href="#SimHei-35" x="200"/>
      </g>
     </g>
    </g>
    <g id="xtick_10">
     <g id="line2d_10">
      <g>
       <use xlink:href="#m758a748ec3" x="419.897203" y="252" style="stroke: #000000; stroke-width: 0.8"/>
      </g>
     </g>
     <g id="text_10">
      <!-- 06-16 -->
      <g transform="translate(407.397203 265.875)scale(0.1 -0.1)">
       <use xlink:href="#SimHei-30"/>
       <use xlink:href="#SimHei-36" x="50"/>
       <use xlink:href="#SimHei-2d" x="100"/>
       <use xlink:href="#SimHei-31" x="150"/>
       <use xlink:href="#SimHei-36" x="200"/>
      </g>
     </g>
    </g>
    <g id="xtick_11">
     <g id="line2d_11">
      <g>
       <use xlink:href="#m758a748ec3" x="455.016084" y="252" style="stroke: #000000; stroke-width: 0.8"/>
      </g>
     </g>
     <g id="text_11">
      <!-- 06-17 -->
      <g transform="translate(442.516084 265.875)scale(0.1 -0.1)">
       <use xlink:href="#SimHei-30"/>
       <use xlink:href="#SimHei-36" x="50"/>
       <use xlink:href="#SimHei-2d" x="100"/>
       <use xlink:href="#SimHei-31" x="150"/>
       <use xlink:href="#SimHei-37" x="200"/>
      </g>
     </g>
    </g>
    <g id="xtick_12">
     <g id="line2d_12">
      <g>
       <use xlink:href="#m758a748ec3" x="490.134965" y="252" style="stroke: #000000; stroke-width: 0.8"/>
      </g>
     </g>
     <g id="text_12">
      <!-- 06-18 -->
      <g transform="translate(477.634965 265.875)scale(0.1 -0.1)">
       <use xlink:href="#SimHei-30"/>
       <use xlink:href="#SimHei-36" x="50"/>
       <use xlink:href="#SimHei-2d" x="100"/>
       <use xlink:href="#SimHei-31" x="150"/>
       <use xlink:href="#SimHei-38" x="200"/>
      </g>
     </g>
    </g>
    <g id="xtick_13">
     <g id="line2d_13">
      <g>
       <use xlink:href="#m758a748ec3" x="525.253846" y="252" style="stroke: #000000; stroke-width: 0.8"/>
      </g>
     </g>
     <g id="text_13">
      <!-- 06-19 -->
      <g transform="translate(512.753846 265.875)scale(0.1 -0.1)">
       <use xlink:href="#SimHei-30"/>
       <use xlink:href="#SimHei-36" x="50"/>
       <use xlink:href="#SimHei-2d" x="100"/>
       <use xlink:href="#SimHei-31" x="150"/>
       <use xlink:href="#SimHei-39" x="200"/>
      </g>
     </g>
    </g>
    <g id="xtick_14">
     <g id="line2d_14">
      <g>
       <use xlink:href="#m758a748ec3" x="560.372727" y="252" style="stroke: #000000; stroke-width: 0.8"/>
      </g>
     </g>
     <g id="text_14">
      <!-- 06-20 -->
      <g transform="translate(547.872727 265.875)scale(0.1 -0.1)">
       <use xlink:href="#SimHei-30"/>
       <use xlink:href="#SimHei-36" x="50"/>
       <use xlink:href="#SimHei-2d" x="100"/>
       <use xlink:href="#SimHei-32" x="150"/>
       <use xlink:href="#SimHei-30" x="200"/>
      </g>
     </g>
    </g>
    <g id="text_15">
     <!-- 日期 -->
     <g transform="translate(322.1 278.820312)scale(0.1 -0.1)">
      <defs>
       <path id="SimHei-65e5" d="M 5375 5000 
Q 5350 3775 5350 2275 
Q 5350 775 5375 -450 
L 4800 -450 
L 4800 175 
L 1800 175 
L 1800 -575 
L 1250 -575 
Q 1275 575 1275 2125 
Q 1275 3675 1250 5000 
L 5375 5000 
z
M 4800 600 
L 4800 2375 
L 1800 2375 
L 1800 600 
L 4800 600 
z
M 4800 2800 
L 4800 4550 
L 1800 4550 
L 1800 2800 
L 4800 2800 
z
" transform="scale(0.015625)"/>
       <path id="SimHei-671f" d="M 4900 -25 
Q 5475 -100 5425 175 
L 5425 1575 
L 4325 1575 
Q 4275 975 4050 425 
Q 3825 -125 3400 -600 
Q 3225 -375 2925 -275 
Q 3350 150 3562 625 
Q 3775 1100 3812 1575 
Q 3850 2050 3850 3125 
Q 3850 4225 3825 4875 
L 5950 4875 
Q 5925 4400 5925 3725 
L 5925 50 
Q 5925 -300 5700 -425 
Q 5475 -550 5100 -600 
Q 5100 -325 4900 -25 
z
M 950 4300 
Q 950 4675 925 5125 
L 1450 5125 
Q 1425 4625 1425 4300 
L 2550 4300 
Q 2550 4775 2525 5125 
L 3075 5125 
Q 3050 4700 3050 4300 
Q 3225 4300 3500 4325 
L 3500 3900 
Q 3250 3925 3050 3925 
L 3050 1550 
Q 3250 1550 3500 1575 
L 3500 1150 
Q 3025 1175 2575 1175 
L 1225 1175 
Q 675 1175 275 1150 
L 275 1575 
Q 650 1550 950 1550 
L 950 3925 
Q 725 3925 425 3900 
L 425 4325 
Q 700 4300 950 4300 
z
M 5425 3375 
L 5425 4500 
L 4350 4500 
L 4350 3375 
L 5425 3375 
z
M 5425 1950 
L 5425 3000 
L 4350 3000 
L 4350 1950 
L 5425 1950 
z
M 1600 725 
Q 1425 650 1162 287 
Q 900 -75 650 -350 
Q 400 -175 225 -75 
Q 450 100 700 412 
Q 950 725 1100 1025 
L 1600 725 
z
M 2550 3375 
L 2550 3925 
L 1425 3925 
L 1425 3375 
L 2550 3375 
z
M 2550 1550 
L 2550 2100 
L 1425 2100 
L 1425 1550 
L 2550 1550 
z
M 2550 2475 
L 2550 3000 
L 1425 3000 
L 1425 2475 
L 2550 2475 
z
M 2850 -75 
Q 2450 525 2225 725 
Q 2375 825 2550 1025 
Q 2850 725 3250 275 
Q 3050 125 2850 -75 
z
" transform="scale(0.015625)"/>
      </defs>
      <use xlink:href="#SimHei-65e5"/>
      <use xlink:href="#SimHei-671f" x="100"/>
     </g>
    </g>
   </g>
   <g id="matplotlib.axis_2">
    <g id="ytick_1">
     <g id="line2d_15">
      <defs>
       <path id="m38fbeffc66" d="M 0 0 
L -3.5 0 
" style="stroke: #000000; stroke-width: 0.8"/>
      </defs>
      <g>
       <use xlink:href="#m38fbeffc66" x="81" y="252" style="stroke: #000000; stroke-width: 0.8"/>
      </g>
     </g>
     <g id="text_16">
      <!-- 0 -->
      <g transform="translate(69 255.4375)scale(0.1 -0.1)">
       <use xlink:href="#SimHei-30"/>
      </g>
     </g>
    </g>
    <g id="ytick_2">
     <g id="line2d_16">
      <g>
       <use xlink:href="#m38fbeffc66" x="81" y="222.502291" style="stroke: #000000; stroke-width: 0.8"/>
      </g>
     </g>
     <g id="text_17">
      <!-- 2500 -->
      <g transform="translate(54 225.939791)scale(0.1 -0.1)">
       <use xlink:href="#SimHei-32"/>
       <use xlink:href="#SimHei-35" x="50"/>
       <use xlink:href="#SimHei-30" x="100"/>
       <use xlink:href="#SimHei-30" x="150"/>
      </g>
     </g>
    </g>
    <g id="ytick_3">
     <g id="line2d_17">
      <g>
       <use xlink:href="#m38fbeffc66" x="81" y="193.004583" style="stroke: #000000; stroke-width: 0.8"/>
      </g>
     </g>
     <g id="text_18">
      <!-- 5000 -->
      <g transform="translate(54 196.442083)scale(0.1 -0.1)">
       <use xlink:href="#SimHei-35"/>
       <use xlink:href="#SimHei-30" x="50"/>
       <use xlink:href="#SimHei-30" x="100"/>
       <use xlink:href="#SimHei-30" x="150"/>
      </g>
     </g>
    </g>
    <g id="ytick_4">
     <g id="line2d_18">
      <g>
       <use xlink:href="#m38fbeffc66" x="81" y="163.506874" style="stroke: #000000; stroke-width: 0.8"/>
      </g>
     </g>
     <g id="text_19">
      <!-- 7500 -->
      <g transform="translate(54 166.944374)scale(0.1 -0.1)">
       <use xlink:href="#SimHei-37"/>
       <use xlink:href="#SimHei-35" x="50"/>
       <use xlink:href="#SimHei-30" x="100"/>
       <use xlink:href="#SimHei-30" x="150"/>
      </g>
     </g>
    </g>
    <g id="ytick_5">
     <g id="line2d_19">
      <g>
       <use xlink:href="#m38fbeffc66" x="81" y="134.009165" style="stroke: #000000; stroke-width: 0.8"/>
      </g>
     </g>
     <g id="text_20">
      <!-- 10000 -->
      <g transform="translate(49 137.446665)scale(0.1 -0.1)">
       <use xlink:href="#SimHei-31"/>
       <use xlink:href="#SimHei-30" x="50"/>
       <use xlink:href="#SimHei-30" x="100"/>
       <use xlink:href="#SimHei-30" x="150"/>
       <use xlink:href="#SimHei-30" x="200"/>
      </g>
     </g>
    </g>
    <g id="ytick_6">
     <g id="line2d_20">
      <g>
       <use xlink:href="#m38fbeffc66" x="81" y="104.511456" style="stroke: #000000; stroke-width: 0.8"/>
      </g>
     </g>
     <g id="text_21">
      <!-- 12500 -->
      <g transform="translate(49 107.948956)scale(0.1 -0.1)">
       <use xlink:href="#SimHei-31"/>
       <use xlink:href="#SimHei-32" x="50"/>
       <use xlink:href="#SimHei-35" x="100"/>
       <use xlink:href="#SimHei-30" x="150"/>
       <use xlink:href="#SimHei-30" x="200"/>
      </g>
     </g>
    </g>
    <g id="ytick_7">
     <g id="line2d_21">
      <g>
       <use xlink:href="#m38fbeffc66" x="81" y="75.013748" style="stroke: #000000; stroke-width: 0.8"/>
      </g>
     </g>
     <g id="text_22">
      <!-- 15000 -->
      <g transform="translate(49 78.451248)scale(0.1 -0.1)">
       <use xlink:href="#SimHei-31"/>
       <use xlink:href="#SimHei-35" x="50"/>
       <use xlink:href="#SimHei-30" x="100"/>
       <use xlink:href="#SimHei-30" x="150"/>
       <use xlink:href="#SimHei-30" x="200"/>
      </g>
     </g>
    </g>
    <g id="ytick_8">
     <g id="line2d_22">
      <g>
       <use xlink:href="#m38fbeffc66" x="81" y="45.516039" style="stroke: #000000; stroke-width: 0.8"/>
      </g>
     </g>
     <g id="text_23">
      <!-- 17500 -->
      <g transform="translate(49 48.953539)scale(0.1 -0.1)">
       <use xlink:href="#SimHei-31"/>
       <use xlink:href="#SimHei-37" x="50"/>
       <use xlink:href="#SimHei-35" x="100"/>
       <use xlink:href="#SimHei-30" x="150"/>
       <use xlink:href="#SimHei-30" x="200"/>
      </g>
     </g>
    </g>
    <g id="text_24">
     <!-- 评论数 -->
     <g transform="translate(43.75 158.28)rotate(-90)scale(0.1 -0.1)">
      <defs>
       <path id="SimHei-8bc4" d="M 5900 4500 
Q 5400 4525 4425 4525 
L 4425 2125 
L 5200 2125 
Q 5750 2125 6175 2150 
L 6175 1675 
Q 5775 1700 5200 1700 
L 4425 1700 
L 4425 200 
Q 4425 -300 4450 -675 
L 3900 -675 
Q 3925 -200 3925 200 
L 3925 1700 
L 3075 1700 
Q 2625 1700 2225 1675 
L 2225 2150 
Q 2625 2125 3075 2125 
L 3925 2125 
L 3925 4525 
Q 2850 4525 2425 4500 
L 2425 4975 
Q 2850 4950 3300 4950 
L 4950 4950 
Q 5400 4950 5900 4975 
L 5900 4500 
z
M 875 225 
Q 1150 400 1150 650 
L 1150 2875 
Q 475 2875 225 2850 
L 225 3350 
Q 475 3325 825 3325 
L 1650 3325 
Q 1625 2825 1625 2325 
L 1625 725 
Q 1900 975 2275 1375 
Q 2375 1225 2550 950 
Q 2100 550 1812 300 
Q 1525 50 1250 -250 
Q 1100 25 875 225 
z
M 4825 2625 
Q 5200 3425 5375 4050 
Q 5650 3975 5975 3850 
Q 5925 3800 5700 3325 
Q 5475 2850 5300 2450 
Q 5050 2575 4825 2625 
z
M 2850 4000 
Q 3275 3175 3450 2700 
Q 3150 2600 2950 2475 
Q 2700 3300 2400 3800 
Q 2650 3875 2850 4000 
z
M 1100 5225 
Q 1400 4975 1975 4275 
Q 1750 4125 1575 3950 
Q 1300 4350 750 4900 
Q 900 5025 1100 5225 
z
" transform="scale(0.015625)"/>
       <path id="SimHei-8bba" d="M 3500 1600 
Q 3825 1725 4250 2000 
Q 4675 2275 4975 2575 
Q 5225 2275 5400 2100 
Q 5050 1950 4550 1675 
Q 4050 1400 3500 1150 
L 3500 300 
Q 3500 -100 3800 -100 
L 4825 -100 
Q 5125 -100 5250 137 
Q 5375 375 5375 575 
Q 5675 350 5925 275 
Q 5750 -225 5550 -375 
Q 5350 -525 5100 -525 
L 3550 -525 
Q 3025 -475 3025 0 
L 3025 2175 
Q 3025 2525 3000 2850 
L 3525 2850 
Q 3500 2400 3500 2200 
L 3500 1600 
z
M 4175 4850 
Q 4400 4350 4950 3687 
Q 5500 3025 6175 2700 
Q 5975 2575 5800 2275 
Q 5100 2750 4637 3375 
Q 4175 4000 3950 4425 
Q 3725 3950 3387 3425 
Q 3050 2900 2325 2200 
Q 2175 2375 1950 2575 
Q 2350 2825 2650 3175 
Q 2950 3525 3200 3962 
Q 3450 4400 3575 4725 
Q 3700 5050 3750 5250 
Q 3975 5150 4275 5050 
L 4175 4850 
z
M 1600 3150 
Q 1575 2750 1575 2275 
L 1575 550 
Q 1950 825 2400 1300 
Q 2500 1075 2650 800 
Q 2250 475 1900 187 
Q 1550 -100 1250 -375 
Q 1150 -225 900 50 
Q 1100 250 1100 450 
L 1100 2700 
L 800 2700 
Q 550 2700 275 2675 
L 275 3175 
Q 550 3150 800 3150 
L 1600 3150 
z
M 975 5000 
Q 1550 4525 2125 4025 
Q 1950 3875 1750 3650 
Q 1325 4150 650 4650 
Q 825 4800 975 5000 
z
" transform="scale(0.015625)"/>
       <path id="SimHei-6570" d="M 4525 4925 
Q 4475 4800 4400 4587 
Q 4325 4375 4175 3825 
L 5325 3825 
Q 5575 3825 5925 3850 
L 5925 3400 
Q 5650 3425 5500 3425 
Q 5500 3025 5362 2162 
Q 5225 1300 4875 675 
Q 5125 375 5437 137 
Q 5750 -100 6025 -200 
Q 5725 -425 5625 -625 
Q 5325 -450 5075 -225 
Q 4825 0 4575 325 
Q 4300 25 3987 -187 
Q 3675 -400 3200 -650 
Q 3075 -425 2850 -300 
Q 3225 -150 3650 125 
Q 4075 400 4300 675 
Q 4125 1025 3962 1425 
Q 3800 1825 3675 2475 
Q 3600 2275 3425 1950 
Q 3250 2050 3000 2150 
Q 3400 2850 3650 3675 
Q 3900 4500 3975 5100 
Q 4275 4975 4525 4925 
z
M 2100 2250 
Q 2000 2150 1875 1925 
L 3250 1925 
Q 3100 1300 2725 675 
Q 3125 525 3350 400 
Q 3225 225 3125 25 
Q 2900 175 2450 325 
Q 1950 -225 725 -650 
Q 600 -375 400 -275 
Q 1575 0 2000 475 
Q 1300 650 850 775 
Q 1000 1000 1250 1525 
Q 1000 1525 425 1500 
L 425 1950 
Q 900 1925 1400 1925 
Q 1500 2150 1550 2425 
Q 1825 2325 2100 2250 
z
M 1775 3950 
Q 1775 4550 1750 5100 
L 2250 5100 
Q 2225 4575 2225 3950 
Q 3075 3950 3425 3975 
L 3425 3525 
Q 3075 3550 2225 3550 
Q 2225 2825 2250 2425 
L 1750 2425 
Q 1775 2775 1775 3300 
Q 1650 3100 1300 2787 
Q 950 2475 650 2300 
Q 525 2525 275 2625 
Q 500 2700 875 2975 
Q 1250 3250 1450 3550 
Q 950 3550 500 3525 
L 500 3975 
Q 925 3950 1775 3950 
z
M 3975 3175 
Q 4200 1700 4600 1125 
Q 4850 1700 4937 2287 
Q 5025 2875 5050 3425 
L 4075 3425 
L 3975 3175 
z
M 1450 1000 
Q 1750 925 2275 800 
Q 2475 1050 2650 1525 
L 1725 1525 
Q 1600 1275 1450 1000 
z
M 3325 4825 
Q 3200 4625 3125 4450 
Q 3050 4275 2925 4025 
Q 2725 4125 2525 4175 
Q 2725 4500 2900 5000 
Q 3150 4875 3325 4825 
z
M 2575 3375 
Q 2900 3050 3200 2725 
Q 3050 2600 2875 2425 
Q 2525 2850 2300 3100 
Q 2450 3225 2575 3375 
z
M 925 5000 
Q 1275 4650 1500 4300 
L 1125 4075 
Q 950 4425 600 4725 
Q 825 4875 925 5000 
z
" transform="scale(0.015625)"/>
      </defs>
      <use xlink:href="#SimHei-8bc4"/>
      <use xlink:href="#SimHei-8bba" x="100"/>
      <use xlink:href="#SimHei-6570" x="200"/>
     </g>
    </g>
   </g>
   <g id="patch_3">
    <path d="M 81 252 
L 81 34.56 
" style="fill: none; stroke: #000000; stroke-width: 0.8; stroke-linejoin: miter; stroke-linecap: square"/>
   </g>
   <g id="patch_4">
    <path d="M 583.2 252 
L 583.2 34.56 
" style="fill: none; stroke: #000000; stroke-width: 0.8; stroke-linejoin: miter; stroke-linecap: square"/>
   </g>
   <g id="patch_5">
    <path d="M 81 252 
L 583.2 252 
" style="fill: none; stroke: #000000; stroke-width: 0.8; stroke-linejoin: miter; stroke-linecap: square"/>
   </g>
   <g id="patch_6">
    <path d="M 81 34.56 
L 583.2 34.56 
" style="fill: none; stroke: #000000; stroke-width: 0.8; stroke-linejoin: miter; stroke-linecap: square"/>
   </g>
   <g id="legend_1">
    <g id="patch_7">
     <path d="M 88 99.513125 
L 160 99.513125 
Q 162 99.513125 162 97.513125 
L 162 41.56 
Q 162 39.56 160 39.56 
L 88 39.56 
Q 86 39.56 86 41.56 
L 86 97.513125 
Q 86 99.513125 88 99.513125 
z
" style="fill: #ffffff; opacity: 0.8; stroke: #cccccc; stroke-linejoin: miter"/>
    </g>
    <g id="patch_8">
     <path d="M 90 51.21625 
L 110 51.21625 
L 110 44.21625 
L 90 44.21625 
z
" style="fill: #1f77b4; fill-opacity: 0.8"/>
    </g>
    <g id="text_25">
     <!-- 哔哩哔哩 -->
     <g transform="translate(118 51.21625)scale(0.1 -0.1)">
      <defs>
       <path id="SimHei-54d4" d="M 1975 4525 
Q 1950 4000 1950 3475 
L 1950 1875 
Q 1950 1425 1975 850 
L 1475 850 
L 1475 1275 
L 775 1275 
L 775 400 
L 275 400 
Q 300 900 300 1425 
L 300 3475 
Q 300 4000 275 4525 
L 1975 4525 
z
M 5900 4275 
Q 5575 4075 4650 3425 
L 4650 2925 
Q 4650 2550 4875 2525 
Q 5100 2500 5375 2500 
Q 5650 2500 5700 3075 
Q 5875 2950 6175 2850 
Q 5950 2200 5687 2162 
Q 5425 2125 4900 2125 
Q 4400 2125 4287 2287 
Q 4175 2450 4200 2600 
L 4200 4600 
Q 4200 4875 4175 5150 
L 4675 5150 
Q 4650 4925 4650 4575 
L 4650 3900 
Q 5275 4375 5500 4700 
Q 5775 4375 5900 4275 
z
M 3800 1275 
Q 3800 1825 3750 2025 
L 4300 2025 
Q 4275 1825 4275 1275 
L 5375 1275 
Q 5750 1275 6175 1300 
L 6175 875 
Q 5775 900 5400 900 
L 4275 900 
L 4275 175 
Q 4275 -225 4300 -550 
L 3750 -550 
Q 3800 -225 3800 175 
L 3800 900 
L 2975 900 
Q 2650 900 2175 875 
L 2175 1300 
Q 2650 1275 2975 1275 
L 3800 1275 
z
M 3900 3725 
Q 3725 3750 3350 3750 
L 3025 3750 
L 3025 2600 
Q 3375 2775 3750 2975 
Q 3825 2650 3875 2525 
Q 3500 2425 3175 2250 
Q 2850 2075 2700 1925 
Q 2600 2050 2375 2375 
Q 2550 2475 2550 2975 
L 2550 4400 
Q 2550 4800 2525 5100 
L 3050 5100 
Q 3025 4950 3025 4125 
L 3375 4125 
Q 3725 4125 3900 4150 
L 3900 3725 
z
M 1475 1650 
L 1475 4150 
L 775 4150 
L 775 1650 
L 1475 1650 
z
" transform="scale(0.015625)"/>
       <path id="SimHei-54e9" d="M 5775 4875 
Q 5750 4575 5750 4050 
L 5750 2850 
Q 5750 2350 5775 1950 
L 4375 1950 
L 4375 1225 
L 5125 1225 
Q 5550 1225 5925 1250 
L 5925 800 
Q 5525 825 5125 825 
L 4375 825 
L 4375 0 
L 5275 0 
Q 5750 0 6125 25 
L 6125 -425 
Q 5800 -400 5300 -400 
L 3200 -400 
Q 2475 -400 2125 -425 
L 2125 25 
Q 2425 0 3075 0 
L 3900 0 
L 3900 825 
L 3325 825 
Q 2700 825 2425 800 
L 2425 1250 
Q 2675 1225 3300 1225 
L 3900 1225 
L 3900 1950 
L 2500 1950 
Q 2525 2375 2525 2850 
L 2525 4050 
Q 2525 4500 2500 4875 
L 5775 4875 
z
M 2100 4650 
Q 2075 4075 2075 3450 
L 2075 1625 
Q 2075 1125 2100 500 
L 1600 500 
L 1600 1075 
L 900 1075 
L 900 -25 
L 400 -25 
Q 425 525 425 1125 
L 425 3450 
Q 425 4075 400 4650 
L 2100 4650 
z
M 1600 1500 
L 1600 4225 
L 900 4225 
L 900 1500 
L 1600 1500 
z
M 3900 2350 
L 3900 3225 
L 3000 3225 
L 3000 2350 
L 3900 2350 
z
M 3900 3625 
L 3900 4500 
L 3000 4500 
L 3000 3625 
L 3900 3625 
z
M 5275 2350 
L 5275 3225 
L 4375 3225 
L 4375 2350 
L 5275 2350 
z
M 5275 3625 
L 5275 4500 
L 4375 4500 
L 4375 3625 
L 5275 3625 
z
" transform="scale(0.015625)"/>
      </defs>
      <use xlink:href="#SimHei-54d4"/>
      <use xlink:href="#SimHei-54e9" x="100"/>
      <use xlink:href="#SimHei-54d4" x="200"/>
      <use xlink:href="#SimHei-54e9" x="300"/>
     </g>
    </g>
    <g id="patch_9">
     <path d="M 90 65.708438 
L 110 65.708438 
L 110 58.708438 
L 90 58.708438 
z
" style="fill: #ff7f0e; fill-opacity: 0.8"/>
    </g>
    <g id="text_26">
     <!-- 今日头条 -->
     <g transform="translate(118 65.708438)scale(0.1 -0.1)">
      <defs>
       <path id="SimHei-4eca" d="M 3450 4850 
Q 4675 3100 6125 2525 
Q 5875 2300 5725 2025 
Q 4200 2925 3200 4525 
Q 2325 3150 700 2000 
Q 550 2250 300 2400 
Q 1150 2825 1912 3600 
Q 2675 4375 3025 5275 
Q 3250 5175 3575 5050 
L 3450 4850 
z
M 5250 1900 
L 5250 1475 
Q 5075 1400 4425 537 
Q 3775 -325 3550 -775 
Q 3450 -675 3100 -425 
Q 3500 75 4450 1450 
L 2050 1450 
Q 1575 1450 1375 1425 
L 1375 1925 
Q 1575 1900 2075 1900 
L 5250 1900 
z
M 2925 3400 
Q 3425 2825 3750 2450 
Q 3525 2300 3300 2100 
Q 2925 2700 2550 3050 
Q 2825 3275 2925 3400 
z
" transform="scale(0.015625)"/>
       <path id="SimHei-5934" d="M 4175 5100 
Q 4000 4750 4000 4100 
Q 4000 3475 3875 2150 
L 5025 2150 
Q 5500 2150 6100 2175 
L 6100 1650 
Q 5500 1675 5075 1675 
L 3775 1675 
Q 3500 975 3075 575 
Q 2650 175 2162 -112 
Q 1675 -400 950 -700 
Q 825 -450 500 -250 
Q 1125 -175 2050 375 
Q 2975 925 3250 1675 
L 1425 1675 
Q 925 1675 375 1650 
L 375 2175 
Q 925 2150 1275 2150 
L 3400 2150 
Q 3450 2575 3487 3250 
Q 3525 3925 3525 5200 
Q 3800 5150 4175 5100 
z
M 4050 1150 
Q 4500 900 4975 575 
Q 5450 250 6000 -125 
Q 5825 -250 5650 -550 
Q 5200 -225 4750 112 
Q 4300 450 3750 750 
Q 3875 900 4050 1150 
z
M 975 3650 
Q 1850 3175 2325 2850 
Q 2100 2650 1950 2400 
Q 1725 2650 650 3250 
Q 850 3450 975 3650 
z
M 1650 4900 
Q 2375 4475 3000 4050 
Q 2800 3900 2650 3625 
Q 2150 4050 1350 4525 
Q 1525 4700 1650 4900 
z
" transform="scale(0.015625)"/>
       <path id="SimHei-6761" d="M 2700 5075 
Q 2600 5000 2400 4700 
L 5225 4700 
Q 4975 4300 4625 3875 
Q 4275 3450 3750 3050 
Q 4100 2850 4750 2687 
Q 5400 2525 6200 2525 
Q 5950 2275 5925 2000 
Q 5000 2100 4387 2300 
Q 3775 2500 3275 2825 
Q 2500 2375 1837 2175 
Q 1175 1975 575 1850 
Q 500 2125 275 2300 
Q 1250 2400 1912 2625 
Q 2575 2850 2825 3075 
Q 2400 3425 1925 3975 
Q 1600 3550 1150 3075 
Q 925 3300 725 3350 
Q 1225 3775 1625 4350 
Q 2025 4925 2125 5300 
Q 2525 5125 2700 5075 
z
M 2950 1775 
Q 2950 2000 2925 2400 
L 3475 2400 
Q 3450 1975 3450 1775 
L 4500 1775 
Q 5025 1775 5550 1800 
L 5550 1325 
Q 5025 1350 4525 1350 
L 3450 1350 
L 3450 -50 
Q 3475 -575 2450 -625 
Q 2375 -375 2225 -75 
Q 2975 -150 2950 200 
L 2950 1350 
L 1850 1350 
Q 1350 1350 825 1325 
L 825 1800 
Q 1350 1775 1850 1775 
L 2950 1775 
z
M 3300 3300 
Q 4025 3775 4325 4275 
L 2250 4275 
Q 2700 3675 3300 3300 
z
M 4200 1000 
Q 4950 575 5800 0 
Q 5650 -175 5500 -400 
Q 5150 -150 4787 100 
Q 4425 350 3925 600 
Q 4075 775 4200 1000 
z
M 2375 700 
Q 2275 600 1800 250 
Q 1325 -100 850 -400 
Q 700 -200 500 -50 
Q 825 100 1287 437 
Q 1750 775 1950 1050 
L 2375 700 
z
" transform="scale(0.015625)"/>
      </defs>
      <use xlink:href="#SimHei-4eca"/>
      <use xlink:href="#SimHei-65e5" x="100"/>
      <use xlink:href="#SimHei-5934" x="200"/>
      <use xlink:href="#SimHei-6761" x="300"/>
     </g>
    </g>
    <g id="patch_10">
     <path d="M 90 80.044375 
L 110 80.044375 
L 110 73.044375 
L 90 73.044375 
z
" style="fill: #2ca02c; fill-opacity: 0.8"/>
    </g>
    <g id="text_27">
     <!-- 新浪微博 -->
     <g transform="translate(118 80.044375)scale(0.1 -0.1)">
      <defs>
       <path id="SimHei-65b0" d="M 6125 4650 
Q 5750 4650 4275 4500 
L 4275 3225 
L 5575 3225 
Q 5850 3225 6150 3250 
L 6150 2775 
Q 5800 2800 5550 2800 
L 5550 225 
Q 5550 -200 5575 -675 
L 5050 -675 
Q 5075 -200 5075 200 
L 5075 2800 
L 4275 2800 
Q 4275 2175 4225 1600 
Q 4175 1025 4012 462 
Q 3850 -100 3525 -700 
Q 3275 -550 3025 -450 
Q 3425 125 3587 762 
Q 3750 1400 3775 1875 
Q 3800 2350 3800 3300 
Q 3800 4275 3775 4850 
Q 4900 4900 5800 5200 
Q 6000 4800 6125 4650 
z
M 2975 3825 
Q 2800 3725 2575 3050 
Q 3000 3050 3450 3075 
L 3450 2575 
Q 3025 2600 2175 2600 
L 2175 1975 
Q 2950 1975 3400 2000 
L 3400 1500 
Q 2950 1525 2175 1525 
L 2175 0 
Q 2175 -375 1937 -500 
Q 1700 -625 1325 -625 
Q 1225 -325 1075 -75 
Q 1425 -100 1562 -75 
Q 1700 -50 1700 150 
L 1700 1525 
Q 900 1525 450 1500 
L 450 2000 
Q 925 1975 1700 1975 
L 1700 2600 
Q 775 2600 325 2575 
L 325 3075 
Q 775 3050 1175 3050 
L 2125 3050 
Q 2325 3650 2425 3975 
Q 2625 3925 2975 3825 
z
M 2125 5275 
Q 2250 4750 2275 4550 
Q 2850 4550 3350 4575 
L 3350 4075 
Q 2825 4100 2500 4100 
L 1300 4100 
Q 875 4100 475 4075 
L 475 4575 
Q 900 4550 1300 4550 
L 1750 4550 
Q 1700 4825 1600 5125 
Q 1850 5200 2125 5275 
z
M 1525 1050 
Q 1375 875 1175 612 
Q 975 350 600 -125 
Q 425 50 225 175 
Q 750 750 1050 1375 
Q 1300 1175 1525 1050 
z
M 2725 1300 
Q 3025 900 3275 475 
Q 3025 350 2875 150 
Q 2675 600 2350 1025 
Q 2525 1175 2725 1300 
z
M 1275 3950 
Q 1450 3600 1575 3250 
Q 1350 3200 1150 3100 
Q 1025 3475 875 3775 
Q 1050 3875 1275 3950 
z
" transform="scale(0.015625)"/>
       <path id="SimHei-6d6a" d="M 3675 775 
Q 3750 450 3900 300 
Q 3650 100 3225 -187 
Q 2800 -475 2550 -650 
Q 2425 -450 2200 -225 
Q 2400 -50 2375 200 
L 2375 3325 
Q 2375 3875 2350 4350 
L 3775 4350 
Q 3575 4725 3300 5025 
Q 3575 5150 3750 5275 
Q 4075 4875 4250 4600 
Q 4075 4500 3850 4350 
L 5475 4350 
Q 5450 3950 5450 3050 
Q 5450 2175 5475 1875 
L 4025 1875 
Q 4175 1350 4475 950 
Q 5000 1300 5325 1675 
Q 5500 1500 5825 1325 
Q 5625 1225 5387 1062 
Q 5150 900 4800 625 
Q 5400 125 6150 0 
Q 5900 -250 5800 -550 
Q 4950 -225 4375 325 
Q 3800 875 3525 1875 
L 2850 1875 
L 2850 150 
Q 3300 425 3675 775 
z
M 4950 3300 
L 4950 3950 
L 2850 3950 
L 2850 3300 
L 4950 3300 
z
M 4950 2275 
L 4950 2900 
L 2850 2900 
L 2850 2275 
L 4950 2275 
z
M 1850 1350 
Q 1575 950 1275 425 
Q 975 -100 825 -500 
Q 525 -275 225 -75 
Q 500 175 875 737 
Q 1250 1300 1400 1725 
Q 1625 1500 1850 1350 
z
M 550 3300 
Q 1125 3050 1800 2650 
Q 1600 2450 1450 2200 
Q 950 2550 250 2875 
Q 400 3075 550 3300 
z
M 975 4875 
Q 1425 4575 2050 4150 
Q 1825 3975 1650 3700 
Q 1250 4100 575 4500 
Q 775 4675 975 4875 
z
" transform="scale(0.015625)"/>
       <path id="SimHei-5fae" d="M 4050 2075 
Q 3850 2250 3675 2300 
Q 4050 3025 4262 3837 
Q 4475 4650 4500 5175 
Q 4775 5075 5025 5050 
Q 4875 4700 4725 3850 
L 5525 3850 
Q 5800 3850 6050 3875 
L 6050 3475 
Q 5675 3500 5600 3500 
Q 5600 2800 5525 2162 
Q 5450 1525 5100 775 
Q 5225 525 5487 312 
Q 5750 100 6125 -75 
Q 5825 -275 5800 -525 
Q 5175 -150 4800 400 
Q 4275 -175 3625 -600 
Q 3450 -400 3150 -225 
Q 3675 0 3975 225 
Q 4275 450 4550 800 
Q 4275 1475 4200 2450 
L 4050 2075 
z
M 1875 3550 
Q 1650 3375 1375 2875 
L 1375 475 
Q 1375 25 1400 -550 
L 950 -550 
Q 975 25 975 475 
L 975 2300 
Q 750 2000 550 1700 
Q 425 1950 275 2100 
Q 575 2400 925 2900 
Q 1275 3400 1475 3925 
Q 1650 3650 1875 3550 
z
M 3450 1975 
Q 3425 1500 3425 725 
Q 3650 900 3850 1125 
L 4050 725 
Q 3875 625 3637 425 
Q 3400 225 3175 0 
L 2925 375 
Q 3050 475 3050 700 
L 3050 1650 
L 2500 1650 
Q 2500 1100 2412 662 
Q 2325 225 2000 -275 
Q 1825 -75 1600 25 
Q 1975 450 2037 1037 
Q 2100 1625 2075 1975 
L 3450 1975 
z
M 2350 4600 
Q 2325 4175 2325 3575 
L 2700 3575 
Q 2700 4575 2675 5100 
L 3100 5100 
Q 3075 4600 3075 3575 
L 3500 3575 
Q 3500 4075 3475 4600 
L 3875 4600 
Q 3850 4325 3850 3925 
Q 3850 3550 3875 3250 
L 1900 3250 
Q 1925 3600 1925 3925 
Q 1925 4250 1900 4600 
L 2350 4600 
z
M 4525 2825 
Q 4625 1775 4850 1200 
Q 5050 1700 5112 2212 
Q 5175 2725 5200 3500 
L 4625 3500 
Q 4525 3175 4350 2775 
L 4525 2825 
z
M 1700 4850 
Q 1275 4300 675 3625 
Q 525 3800 300 3925 
Q 1025 4575 1300 5150 
Q 1450 5000 1700 4850 
z
M 3700 2475 
Q 3325 2500 2750 2500 
Q 2175 2500 1800 2475 
L 1800 2850 
Q 2175 2825 2750 2825 
Q 3325 2825 3700 2850 
L 3700 2475 
z
" transform="scale(0.015625)"/>
       <path id="SimHei-535a" d="M 3600 4575 
Q 3600 5000 3575 5200 
L 4100 5200 
Q 4075 4950 4075 4575 
L 5075 4575 
Q 5650 4575 5925 4600 
L 5925 4150 
Q 5650 4175 5100 4175 
L 4075 4175 
L 4075 3775 
L 5525 3775 
Q 5500 3400 5500 3050 
L 5500 2500 
Q 5500 2025 5525 1725 
L 5050 1725 
L 5050 1975 
L 4075 1975 
Q 4075 1750 4100 1525 
L 3575 1525 
Q 3600 1775 3600 1975 
L 2775 1975 
L 2775 1550 
L 2275 1550 
Q 2300 1825 2300 2250 
L 2300 3025 
Q 2300 3500 2275 3775 
L 3600 3775 
L 3600 4175 
L 3075 4175 
Q 2575 4175 2100 4150 
L 2100 4600 
Q 2550 4575 3050 4575 
L 3600 4575 
z
M 950 4375 
Q 950 4825 925 5175 
L 1425 5175 
Q 1400 4750 1400 4375 
L 1400 3375 
Q 1725 3375 2050 3400 
L 2050 2925 
Q 1700 2950 1400 2950 
L 1400 250 
Q 1400 -225 1425 -500 
L 925 -500 
Q 950 -250 950 250 
L 950 2950 
Q 600 2950 250 2925 
L 250 3400 
Q 625 3375 950 3375 
L 950 4375 
z
M 4800 1225 
Q 4800 1425 4775 1625 
L 5275 1625 
Q 5250 1425 5250 1225 
L 5425 1225 
Q 5875 1225 6200 1250 
L 6200 775 
Q 5850 800 5425 800 
L 5250 800 
L 5250 -25 
Q 5250 -425 4987 -500 
Q 4725 -575 4325 -650 
Q 4275 -375 4125 -125 
Q 4550 -125 4675 -100 
Q 4800 -75 4800 200 
L 4800 800 
L 2700 800 
Q 2175 800 1875 750 
L 1875 1250 
Q 2175 1225 2700 1225 
L 4800 1225 
z
M 3075 750 
Q 3375 400 3600 100 
Q 3375 -50 3175 -200 
Q 2975 125 2675 475 
Q 2875 600 3075 750 
z
M 5050 2350 
L 5050 2700 
L 4075 2700 
L 4075 2350 
L 5050 2350 
z
M 5050 3075 
L 5050 3400 
L 4075 3400 
L 4075 3075 
L 5050 3075 
z
M 3600 2350 
L 3600 2700 
L 2775 2700 
L 2775 2350 
L 3600 2350 
z
M 3600 3075 
L 3600 3400 
L 2775 3400 
L 2775 3075 
L 3600 3075 
z
M 5000 4625 
Q 4800 4825 4650 5000 
L 5025 5250 
Q 5150 5075 5375 4850 
Q 5150 4750 5000 4625 
z
" transform="scale(0.015625)"/>
      </defs>
      <use xlink:href="#SimHei-65b0"/>
      <use xlink:href="#SimHei-6d6a" x="100"/>
      <use xlink:href="#SimHei-5fae" x="200"/>
      <use xlink:href="#SimHei-535a" x="300"/>
     </g>
    </g>
    <g id="patch_11">
     <path d="M 90 94.263125 
L 110 94.263125 
L 110 87.263125 
L 90 87.263125 
z
" style="fill: #d62728; fill-opacity: 0.8"/>
    </g>
    <g id="text_28">
     <!-- 抖音 -->
     <g transform="translate(118 94.263125)scale(0.1 -0.1)">
      <defs>
       <path id="SimHei-6296" d="M 2625 2575 
Q 2600 2350 2675 2125 
Q 2425 2025 1875 1850 
L 1875 150 
Q 1900 -150 1687 -312 
Q 1475 -475 875 -600 
Q 800 -350 650 -50 
Q 1050 -25 1212 25 
Q 1375 75 1375 300 
L 1375 1700 
Q 1150 1625 450 1325 
Q 400 1500 250 1900 
Q 1050 2050 1375 2175 
L 1375 3375 
Q 925 3375 425 3350 
L 425 3825 
Q 925 3800 1375 3800 
Q 1375 4525 1350 5125 
L 1925 5125 
Q 1875 4625 1875 3800 
Q 2200 3800 2775 3825 
L 2775 3350 
Q 2225 3375 1875 3375 
L 1875 2300 
Q 2100 2375 2625 2575 
z
M 2475 1100 
Q 2800 1125 4675 1400 
L 4675 4450 
Q 4675 4925 4650 5225 
L 5200 5225 
Q 5175 4950 5175 4475 
L 5175 1475 
Q 5775 1575 6125 1650 
L 6150 1200 
Q 5825 1150 5175 1025 
Q 5175 175 5200 -625 
L 4650 -625 
Q 4675 -25 4675 950 
Q 4275 900 2625 575 
L 2475 1100 
z
M 3575 4750 
Q 3675 4600 4250 3800 
Q 4125 3750 3775 3475 
Q 3650 3725 3150 4450 
Q 3375 4575 3575 4750 
z
M 3425 3025 
Q 3925 2400 4100 2175 
Q 3900 2025 3675 1825 
Q 3550 2050 3025 2675 
Q 3200 2825 3425 3025 
z
" transform="scale(0.015625)"/>
       <path id="SimHei-97f3" d="M 5100 2100 
Q 5075 1725 5075 1350 
L 5075 375 
Q 5075 -125 5100 -600 
L 4550 -600 
L 4550 -250 
L 1825 -250 
L 1825 -625 
L 1300 -625 
Q 1325 -100 1325 500 
L 1325 1350 
Q 1325 1675 1300 2100 
L 5100 2100 
z
M 4150 4050 
Q 4475 3900 4725 3825 
Q 4550 3550 4462 3387 
Q 4375 3225 4250 2975 
L 5050 2975 
Q 5550 2975 6000 3000 
L 6000 2575 
Q 5550 2600 5050 2600 
L 1375 2600 
Q 875 2600 425 2575 
L 425 3000 
Q 900 2975 1375 2975 
L 2100 2975 
Q 1900 3500 1650 3825 
Q 1875 3950 2075 4075 
Q 2400 3575 2625 3200 
Q 2450 3100 2250 2975 
L 3750 2975 
Q 4050 3650 4150 4050 
z
M 3250 5275 
Q 3425 4825 3475 4525 
L 4750 4525 
Q 5100 4525 5575 4550 
L 5575 4125 
Q 5075 4150 4750 4150 
L 1625 4150 
Q 1150 4150 700 4125 
L 700 4550 
Q 1150 4525 1625 4525 
L 2900 4525 
Q 2875 4825 2700 5150 
Q 2975 5200 3250 5275 
z
M 4550 125 
L 4550 725 
L 1825 725 
L 1825 125 
L 4550 125 
z
M 4550 1100 
L 4550 1700 
L 1825 1700 
L 1825 1100 
L 4550 1100 
z
" transform="scale(0.015625)"/>
      </defs>
      <use xlink:href="#SimHei-6296"/>
      <use xlink:href="#SimHei-97f3" x="100"/>
     </g>
    </g>
   </g>
  </g>
 </g>
 <defs>
  <clipPath id="pf10ba35d69">
   <rect x="81" y="34.56" width="502.2" height="217.44"/>
  </clipPath>
 </defs>
</svg>
