<?xml version="1.0" encoding="utf-8" standalone="no"?>
<!DOCTYPE svg PUBLIC "-//W3C//DTD SVG 1.1//EN"
  "http://www.w3.org/Graphics/SVG/1.1/DTD/svg11.dtd">
<svg xmlns:xlink="http://www.w3.org/1999/xlink" width="432pt" height="720pt" viewBox="0 0 432 720" xmlns="http://www.w3.org/2000/svg" version="1.1">
 <metadata>
  <rdf:RDF xmlns:dc="http://purl.org/dc/elements/1.1/" xmlns:cc="http://creativecommons.org/ns#" xmlns:rdf="http://www.w3.org/1999/02/22-rdf-syntax-ns#">
   <cc:Work>
    <dc:type rdf:resource="http://purl.org/dc/dcmitype/StillImage"/>
    <dc:date>2022-07-25T13:17:43.090071</dc:date>
    <dc:format>image/svg+xml</dc:format>
    <dc:creator>
     <cc:Agent>
      <dc:title>Matplotlib v3.5.1, https://matplotlib.org/</dc:title>
     </cc:Agent>
    </dc:creator>
   </cc:Work>
  </rdf:RDF>
 </metadata>
 <defs>
  <style type="text/css">*{stroke-linejoin: round; stroke-linecap: butt}</style>
 </defs>
 <g id="figure_1">
  <g id="patch_1">
   <path d="M 0 720 
L 432 720 
L 432 0 
L 0 0 
L 0 720 
z
" style="fill: none"/>
  </g>
  <g id="axes_1">
   <g id="patch_2">
    <path d="M 54 630 
L 388.8 630 
L 388.8 86.4 
L 54 86.4 
z
" style="fill: #ffffff"/>
   </g>
   <g id="patch_3">
    <path d="M 54 111.109091 
L 175.754585 111.109091 
L 175.754585 139.757312 
L 54 139.757312 
z
" clip-path="url(#pf4c700f7b4)" style="fill: #fdad60"/>
   </g>
   <g id="patch_4">
    <path d="M 54 146.919368 
L 232.865753 146.919368 
L 232.865753 175.567589 
L 54 175.567589 
z
" clip-path="url(#pf4c700f7b4)" style="fill: #fdad60"/>
   </g>
   <g id="patch_5">
    <path d="M 54 182.729644 
L 222.287131 182.729644 
L 222.287131 211.377866 
L 54 211.377866 
z
" clip-path="url(#pf4c700f7b4)" style="fill: #fdad60"/>
   </g>
   <g id="patch_6">
    <path d="M 54 218.539921 
L 241.167963 218.539921 
L 241.167963 247.188142 
L 54 247.188142 
z
" clip-path="url(#pf4c700f7b4)" style="fill: #fdad60"/>
   </g>
   <g id="patch_7">
    <path d="M 54 254.350198 
L 263.563844 254.350198 
L 263.563844 282.998419 
L 54 282.998419 
z
" clip-path="url(#pf4c700f7b4)" style="fill: #fdad60"/>
   </g>
   <g id="patch_8">
    <path d="M 54 290.160474 
L 246.858994 290.160474 
L 246.858994 318.808696 
L 54 318.808696 
z
" clip-path="url(#pf4c700f7b4)" style="fill: #fdad60"/>
   </g>
   <g id="patch_9">
    <path d="M 54 325.970751 
L 254.993821 325.970751 
L 254.993821 354.618972 
L 54 354.618972 
z
" clip-path="url(#pf4c700f7b4)" style="fill: #fdad60"/>
   </g>
   <g id="patch_10">
    <path d="M 54 361.781028 
L 241.60316 361.781028 
L 241.60316 390.429249 
L 54 390.429249 
z
" clip-path="url(#pf4c700f7b4)" style="fill: #fdad60"/>
   </g>
   <g id="patch_11">
    <path d="M 54 397.591304 
L 220.077672 397.591304 
L 220.077672 426.239526 
L 54 426.239526 
z
" clip-path="url(#pf4c700f7b4)" style="fill: #fdad60"/>
   </g>
   <g id="patch_12">
    <path d="M 54 433.401581 
L 237.786821 433.401581 
L 237.786821 462.049802 
L 54 462.049802 
z
" clip-path="url(#pf4c700f7b4)" style="fill: #fdad60"/>
   </g>
   <g id="patch_13">
    <path d="M 54 469.211858 
L 210.70421 469.211858 
L 210.70421 497.860079 
L 54 497.860079 
z
" clip-path="url(#pf4c700f7b4)" style="fill: #fdad60"/>
   </g>
   <g id="patch_14">
    <path d="M 54 505.022134 
L 232.49751 505.022134 
L 232.49751 533.670356 
L 54 533.670356 
z
" clip-path="url(#pf4c700f7b4)" style="fill: #fdad60"/>
   </g>
   <g id="patch_15">
    <path d="M 54 540.832411 
L 225.735226 540.832411 
L 225.735226 569.480632 
L 54 569.480632 
z
" clip-path="url(#pf4c700f7b4)" style="fill: #fdad60"/>
   </g>
   <g id="patch_16">
    <path d="M 54 576.642688 
L 230.288051 576.642688 
L 230.288051 605.290909 
L 54 605.290909 
z
" clip-path="url(#pf4c700f7b4)" style="fill: #fdad60"/>
   </g>
   <g id="patch_17">
    <path d="M 175.754585 111.109091 
L 388.8 111.109091 
L 388.8 139.757312 
L 175.754585 139.757312 
z
" clip-path="url(#pf4c700f7b4)" style="fill: #a5d86a"/>
   </g>
   <g id="patch_18">
    <path d="M 232.865753 146.919368 
L 388.766523 146.919368 
L 388.766523 175.567589 
L 232.865753 175.567589 
z
" clip-path="url(#pf4c700f7b4)" style="fill: #a5d86a"/>
   </g>
   <g id="patch_19">
    <path d="M 222.287131 182.729644 
L 388.766523 182.729644 
L 388.766523 211.377866 
L 222.287131 211.377866 
z
" clip-path="url(#pf4c700f7b4)" style="fill: #a5d86a"/>
   </g>
   <g id="patch_20">
    <path d="M 241.167963 218.539921 
L 388.766523 218.539921 
L 388.766523 247.188142 
L 241.167963 247.188142 
z
" clip-path="url(#pf4c700f7b4)" style="fill: #a5d86a"/>
   </g>
   <g id="patch_21">
    <path d="M 263.563844 254.350198 
L 388.766523 254.350198 
L 388.766523 282.998419 
L 263.563844 282.998419 
z
" clip-path="url(#pf4c700f7b4)" style="fill: #a5d86a"/>
   </g>
   <g id="patch_22">
    <path d="M 246.858994 290.160474 
L 388.766523 290.160474 
L 388.766523 318.808696 
L 246.858994 318.808696 
z
" clip-path="url(#pf4c700f7b4)" style="fill: #a5d86a"/>
   </g>
   <g id="patch_23">
    <path d="M 254.993821 325.970751 
L 388.766523 325.970751 
L 388.766523 354.618972 
L 254.993821 354.618972 
z
" clip-path="url(#pf4c700f7b4)" style="fill: #a5d86a"/>
   </g>
   <g id="patch_24">
    <path d="M 241.60316 361.781028 
L 388.766523 361.781028 
L 388.766523 390.429249 
L 241.60316 390.429249 
z
" clip-path="url(#pf4c700f7b4)" style="fill: #a5d86a"/>
   </g>
   <g id="patch_25">
    <path d="M 220.077672 397.591304 
L 388.766523 397.591304 
L 388.766523 426.239526 
L 220.077672 426.239526 
z
" clip-path="url(#pf4c700f7b4)" style="fill: #a5d86a"/>
   </g>
   <g id="patch_26">
    <path d="M 237.786821 433.401581 
L 388.766523 433.401581 
L 388.766523 462.049802 
L 237.786821 462.049802 
z
" clip-path="url(#pf4c700f7b4)" style="fill: #a5d86a"/>
   </g>
   <g id="patch_27">
    <path d="M 210.70421 469.211858 
L 388.766523 469.211858 
L 388.766523 497.860079 
L 210.70421 497.860079 
z
" clip-path="url(#pf4c700f7b4)" style="fill: #a5d86a"/>
   </g>
   <g id="patch_28">
    <path d="M 232.49751 505.022134 
L 388.766523 505.022134 
L 388.766523 533.670356 
L 232.49751 533.670356 
z
" clip-path="url(#pf4c700f7b4)" style="fill: #a5d86a"/>
   </g>
   <g id="patch_29">
    <path d="M 225.735226 540.832411 
L 388.766523 540.832411 
L 388.766523 569.480632 
L 225.735226 569.480632 
z
" clip-path="url(#pf4c700f7b4)" style="fill: #a5d86a"/>
   </g>
   <g id="patch_30">
    <path d="M 230.288051 576.642688 
L 388.766523 576.642688 
L 388.766523 605.290909 
L 230.288051 605.290909 
z
" clip-path="url(#pf4c700f7b4)" style="fill: #a5d86a"/>
   </g>
   <g id="matplotlib.axis_1">
    <g id="ytick_1">
     <g id="line2d_1">
      <defs>
       <path id="m5bdeece592" d="M 0 0 
L -3.5 0 
" style="stroke: #000000; stroke-width: 0.8"/>
      </defs>
      <g>
       <use xlink:href="#m5bdeece592" x="54" y="125.433202" style="stroke: #000000; stroke-width: 0.8"/>
      </g>
     </g>
     <g id="text_1">
      <!-- 06-07(%) -->
      <g transform="translate(7 129.085545)scale(0.1 -0.1)">
       <defs>
        <path id="SimHei-30" d="M 225 2537 
Q 250 3200 412 3587 
Q 575 3975 875 4225 
Q 1175 4475 1612 4475 
Q 2050 4475 2375 4112 
Q 2700 3750 2800 3200 
Q 2900 2650 2862 1937 
Q 2825 1225 2612 775 
Q 2400 325 1975 150 
Q 1550 -25 1125 187 
Q 700 400 525 750 
Q 350 1100 275 1487 
Q 200 1875 225 2537 
z
M 750 2687 
Q 675 2000 800 1462 
Q 925 925 1212 700 
Q 1500 475 1800 612 
Q 2100 750 2237 1162 
Q 2375 1575 2375 2062 
Q 2375 2550 2337 2950 
Q 2300 3350 2112 3675 
Q 1925 4000 1612 4012 
Q 1300 4025 1062 3700 
Q 825 3375 750 2687 
z
" transform="scale(0.015625)"/>
        <path id="SimHei-36" d="M 250 1612 
Q 275 1975 387 2225 
Q 500 2475 725 2850 
L 1750 4450 
L 2325 4450 
L 1275 2800 
Q 1950 2975 2350 2750 
Q 2750 2525 2887 2237 
Q 3025 1950 3037 1612 
Q 3050 1275 2937 950 
Q 2825 625 2537 362 
Q 2250 100 1737 75 
Q 1225 50 862 262 
Q 500 475 362 862 
Q 225 1250 250 1612 
z
M 1025 787 
Q 1250 550 1625 525 
Q 2000 500 2250 775 
Q 2500 1050 2500 1575 
Q 2500 2100 2187 2300 
Q 1875 2500 1487 2450 
Q 1100 2400 925 2075 
Q 750 1750 775 1387 
Q 800 1025 1025 787 
z
" transform="scale(0.015625)"/>
        <path id="SimHei-2d" d="M 2975 2125 
L 125 2125 
L 125 2525 
L 2975 2525 
L 2975 2125 
z
" transform="scale(0.015625)"/>
        <path id="SimHei-37" d="M 850 150 
Q 1300 2050 2425 3925 
L 275 3925 
L 275 4375 
L 2950 4375 
L 2950 3950 
Q 1775 2050 1400 150 
L 850 150 
z
" transform="scale(0.015625)"/>
        <path id="SimHei-28" d="M 2975 -200 
L 2700 -475 
Q 2075 125 1762 775 
Q 1450 1425 1450 2250 
Q 1450 3075 1762 3725 
Q 2075 4375 2700 5000 
L 2975 4725 
Q 2400 4175 2112 3587 
Q 1825 3000 1825 2250 
Q 1825 1500 2112 912 
Q 2400 325 2975 -200 
z
" transform="scale(0.015625)"/>
        <path id="SimHei-25" d="M 1400 3325 
Q 1400 2600 1187 2400 
Q 975 2200 775 2200 
Q 575 2200 362 2400 
Q 150 2600 150 3325 
Q 150 4050 362 4250 
Q 575 4450 775 4450 
Q 975 4450 1187 4250 
Q 1400 4050 1400 3325 
z
M 2625 4375 
L 700 75 
L 500 150 
L 2425 4450 
L 2625 4375 
z
M 2975 1200 
Q 2975 475 2762 275 
Q 2550 75 2350 75 
Q 2150 75 1937 275 
Q 1725 475 1725 1200 
Q 1725 1925 1937 2125 
Q 2150 2325 2350 2325 
Q 2550 2325 2762 2125 
Q 2975 1925 2975 1200 
z
M 1000 3325 
Q 1000 3775 950 3925 
Q 900 4075 775 4075 
Q 650 4075 600 3925 
Q 550 3775 550 3325 
Q 550 2875 600 2725 
Q 650 2575 775 2575 
Q 900 2575 950 2725 
Q 1000 2875 1000 3325 
z
M 2575 1200 
Q 2575 1650 2525 1800 
Q 2475 1950 2350 1950 
Q 2225 1950 2175 1800 
Q 2125 1650 2125 1200 
Q 2125 750 2175 600 
Q 2225 450 2350 450 
Q 2475 450 2525 600 
Q 2575 750 2575 1200 
z
" transform="scale(0.015625)"/>
        <path id="SimHei-29" d="M 1675 2250 
Q 1675 1425 1362 775 
Q 1050 125 425 -475 
L 150 -200 
Q 725 325 1012 912 
Q 1300 1500 1300 2250 
Q 1300 3000 1012 3587 
Q 725 4175 150 4725 
L 425 5000 
Q 1050 4375 1362 3725 
Q 1675 3075 1675 2250 
z
" transform="scale(0.015625)"/>
       </defs>
       <use xlink:href="#SimHei-30"/>
       <use xlink:href="#SimHei-36" x="50"/>
       <use xlink:href="#SimHei-2d" x="100"/>
       <use xlink:href="#SimHei-30" x="150"/>
       <use xlink:href="#SimHei-37" x="200"/>
       <use xlink:href="#SimHei-28" x="250"/>
       <use xlink:href="#SimHei-25" x="300"/>
       <use xlink:href="#SimHei-29" x="350"/>
      </g>
     </g>
    </g>
    <g id="ytick_2">
     <g id="line2d_2">
      <g>
       <use xlink:href="#m5bdeece592" x="54" y="161.243478" style="stroke: #000000; stroke-width: 0.8"/>
      </g>
     </g>
     <g id="text_2">
      <!-- 06-08(%) -->
      <g transform="translate(7 164.895822)scale(0.1 -0.1)">
       <defs>
        <path id="SimHei-38" d="M 175 1375 
Q 175 1675 325 1962 
Q 475 2250 825 2425 
Q 525 2600 425 2812 
Q 325 3025 312 3300 
Q 300 3575 387 3775 
Q 475 3975 650 4150 
Q 825 4325 1037 4387 
Q 1250 4450 1500 4450 
Q 1750 4450 1950 4400 
Q 2150 4350 2375 4187 
Q 2600 4025 2700 3725 
Q 2800 3425 2687 3025 
Q 2575 2625 2100 2400 
Q 2525 2275 2700 2012 
Q 2875 1750 2875 1375 
Q 2875 1000 2762 775 
Q 2650 550 2512 400 
Q 2375 250 2137 162 
Q 1900 75 1537 75 
Q 1175 75 912 162 
Q 650 250 475 425 
Q 300 600 237 837 
Q 175 1075 175 1375 
z
M 687 1400 
Q 675 1100 787 875 
Q 900 650 1200 587 
Q 1500 525 1825 600 
Q 2150 675 2275 950 
Q 2400 1225 2362 1500 
Q 2325 1775 2050 1962 
Q 1775 2150 1450 2125 
Q 1125 2100 912 1900 
Q 700 1700 687 1400 
z
M 775 3350 
Q 775 3100 950 2875 
Q 1125 2650 1500 2650 
Q 1875 2650 2062 2875 
Q 2250 3100 2237 3412 
Q 2225 3725 2012 3875 
Q 1800 4025 1437 4000 
Q 1075 3975 925 3787 
Q 775 3600 775 3350 
z
" transform="scale(0.015625)"/>
       </defs>
       <use xlink:href="#SimHei-30"/>
       <use xlink:href="#SimHei-36" x="50"/>
       <use xlink:href="#SimHei-2d" x="100"/>
       <use xlink:href="#SimHei-30" x="150"/>
       <use xlink:href="#SimHei-38" x="200"/>
       <use xlink:href="#SimHei-28" x="250"/>
       <use xlink:href="#SimHei-25" x="300"/>
       <use xlink:href="#SimHei-29" x="350"/>
      </g>
     </g>
    </g>
    <g id="ytick_3">
     <g id="line2d_3">
      <g>
       <use xlink:href="#m5bdeece592" x="54" y="197.053755" style="stroke: #000000; stroke-width: 0.8"/>
      </g>
     </g>
     <g id="text_3">
      <!-- 06-09(%) -->
      <g transform="translate(7 200.706099)scale(0.1 -0.1)">
       <defs>
        <path id="SimHei-39" d="M 800 75 
Q 1350 1000 1700 1750 
Q 1075 1650 662 1912 
Q 250 2175 162 2625 
Q 75 3075 175 3437 
Q 275 3800 487 4037 
Q 700 4275 1000 4375 
Q 1300 4475 1537 4475 
Q 1775 4475 2025 4375 
Q 2275 4275 2475 4075 
Q 2675 3875 2750 3662 
Q 2825 3450 2825 3112 
Q 2825 2775 2575 2250 
Q 2325 1725 1350 75 
L 800 75 
z
M 662 2875 
Q 700 2550 937 2337 
Q 1175 2125 1450 2150 
Q 1725 2175 1887 2300 
Q 2050 2425 2200 2725 
Q 2300 3100 2250 3362 
Q 2200 3625 1987 3800 
Q 1775 3975 1525 3975 
Q 1375 4000 1137 3900 
Q 900 3800 762 3500 
Q 625 3200 662 2875 
z
" transform="scale(0.015625)"/>
       </defs>
       <use xlink:href="#SimHei-30"/>
       <use xlink:href="#SimHei-36" x="50"/>
       <use xlink:href="#SimHei-2d" x="100"/>
       <use xlink:href="#SimHei-30" x="150"/>
       <use xlink:href="#SimHei-39" x="200"/>
       <use xlink:href="#SimHei-28" x="250"/>
       <use xlink:href="#SimHei-25" x="300"/>
       <use xlink:href="#SimHei-29" x="350"/>
      </g>
     </g>
    </g>
    <g id="ytick_4">
     <g id="line2d_4">
      <g>
       <use xlink:href="#m5bdeece592" x="54" y="232.864032" style="stroke: #000000; stroke-width: 0.8"/>
      </g>
     </g>
     <g id="text_4">
      <!-- 06-10(%) -->
      <g transform="translate(7 236.516375)scale(0.1 -0.1)">
       <defs>
        <path id="SimHei-31" d="M 1400 3600 
Q 1075 3275 575 2975 
L 575 3450 
Q 1200 3875 1600 4450 
L 1900 4450 
L 1900 150 
L 1400 150 
L 1400 3600 
z
" transform="scale(0.015625)"/>
       </defs>
       <use xlink:href="#SimHei-30"/>
       <use xlink:href="#SimHei-36" x="50"/>
       <use xlink:href="#SimHei-2d" x="100"/>
       <use xlink:href="#SimHei-31" x="150"/>
       <use xlink:href="#SimHei-30" x="200"/>
       <use xlink:href="#SimHei-28" x="250"/>
       <use xlink:href="#SimHei-25" x="300"/>
       <use xlink:href="#SimHei-29" x="350"/>
      </g>
     </g>
    </g>
    <g id="ytick_5">
     <g id="line2d_5">
      <g>
       <use xlink:href="#m5bdeece592" x="54" y="268.674308" style="stroke: #000000; stroke-width: 0.8"/>
      </g>
     </g>
     <g id="text_5">
      <!-- 06-11(%) -->
      <g transform="translate(7 272.326652)scale(0.1 -0.1)">
       <use xlink:href="#SimHei-30"/>
       <use xlink:href="#SimHei-36" x="50"/>
       <use xlink:href="#SimHei-2d" x="100"/>
       <use xlink:href="#SimHei-31" x="150"/>
       <use xlink:href="#SimHei-31" x="200"/>
       <use xlink:href="#SimHei-28" x="250"/>
       <use xlink:href="#SimHei-25" x="300"/>
       <use xlink:href="#SimHei-29" x="350"/>
      </g>
     </g>
    </g>
    <g id="ytick_6">
     <g id="line2d_6">
      <g>
       <use xlink:href="#m5bdeece592" x="54" y="304.484585" style="stroke: #000000; stroke-width: 0.8"/>
      </g>
     </g>
     <g id="text_6">
      <!-- 06-12(%) -->
      <g transform="translate(7 308.136929)scale(0.1 -0.1)">
       <defs>
        <path id="SimHei-32" d="M 300 250 
Q 325 625 650 925 
Q 975 1225 1475 1862 
Q 1975 2500 2125 2850 
Q 2275 3200 2237 3450 
Q 2200 3700 2000 3862 
Q 1800 4025 1537 4000 
Q 1275 3975 1037 3800 
Q 800 3625 675 3275 
L 200 3350 
Q 400 3925 712 4187 
Q 1025 4450 1450 4475 
Q 1700 4500 1900 4462 
Q 2100 4425 2312 4287 
Q 2525 4150 2662 3875 
Q 2800 3600 2762 3212 
Q 2725 2825 2375 2287 
Q 2025 1750 1025 600 
L 2825 600 
L 2825 150 
L 300 150 
L 300 250 
z
" transform="scale(0.015625)"/>
       </defs>
       <use xlink:href="#SimHei-30"/>
       <use xlink:href="#SimHei-36" x="50"/>
       <use xlink:href="#SimHei-2d" x="100"/>
       <use xlink:href="#SimHei-31" x="150"/>
       <use xlink:href="#SimHei-32" x="200"/>
       <use xlink:href="#SimHei-28" x="250"/>
       <use xlink:href="#SimHei-25" x="300"/>
       <use xlink:href="#SimHei-29" x="350"/>
      </g>
     </g>
    </g>
    <g id="ytick_7">
     <g id="line2d_7">
      <g>
       <use xlink:href="#m5bdeece592" x="54" y="340.294862" style="stroke: #000000; stroke-width: 0.8"/>
      </g>
     </g>
     <g id="text_7">
      <!-- 06-13(%) -->
      <g transform="translate(7 343.947205)scale(0.1 -0.1)">
       <defs>
        <path id="SimHei-33" d="M 250 1225 
L 700 1300 
Q 800 975 1025 762 
Q 1250 550 1587 562 
Q 1925 575 2125 837 
Q 2325 1100 2300 1437 
Q 2275 1775 2037 1962 
Q 1800 2150 1275 2225 
L 1275 2550 
Q 1800 2600 2037 2825 
Q 2275 3050 2250 3412 
Q 2225 3775 1925 3937 
Q 1625 4100 1287 3975 
Q 950 3850 750 3275 
L 300 3350 
Q 450 3800 712 4100 
Q 975 4400 1425 4450 
Q 1875 4500 2212 4337 
Q 2550 4175 2687 3837 
Q 2825 3500 2725 3100 
Q 2625 2700 2150 2400 
Q 2500 2250 2687 1950 
Q 2875 1650 2812 1162 
Q 2750 675 2375 375 
Q 2000 75 1525 87 
Q 1050 100 700 387 
Q 350 675 250 1225 
z
" transform="scale(0.015625)"/>
       </defs>
       <use xlink:href="#SimHei-30"/>
       <use xlink:href="#SimHei-36" x="50"/>
       <use xlink:href="#SimHei-2d" x="100"/>
       <use xlink:href="#SimHei-31" x="150"/>
       <use xlink:href="#SimHei-33" x="200"/>
       <use xlink:href="#SimHei-28" x="250"/>
       <use xlink:href="#SimHei-25" x="300"/>
       <use xlink:href="#SimHei-29" x="350"/>
      </g>
     </g>
    </g>
    <g id="ytick_8">
     <g id="line2d_8">
      <g>
       <use xlink:href="#m5bdeece592" x="54" y="376.105138" style="stroke: #000000; stroke-width: 0.8"/>
      </g>
     </g>
     <g id="text_8">
      <!-- 06-14(%) -->
      <g transform="translate(7 379.757482)scale(0.1 -0.1)">
       <defs>
        <path id="SimHei-34" d="M 2000 1100 
L 75 1100 
L 75 1525 
L 2100 4450 
L 2475 4450 
L 2475 1525 
L 3075 1525 
L 3075 1100 
L 2475 1100 
L 2475 150 
L 2000 150 
L 2000 1100 
z
M 2000 1525 
L 2000 3500 
L 600 1525 
L 2000 1525 
z
" transform="scale(0.015625)"/>
       </defs>
       <use xlink:href="#SimHei-30"/>
       <use xlink:href="#SimHei-36" x="50"/>
       <use xlink:href="#SimHei-2d" x="100"/>
       <use xlink:href="#SimHei-31" x="150"/>
       <use xlink:href="#SimHei-34" x="200"/>
       <use xlink:href="#SimHei-28" x="250"/>
       <use xlink:href="#SimHei-25" x="300"/>
       <use xlink:href="#SimHei-29" x="350"/>
      </g>
     </g>
    </g>
    <g id="ytick_9">
     <g id="line2d_9">
      <g>
       <use xlink:href="#m5bdeece592" x="54" y="411.915415" style="stroke: #000000; stroke-width: 0.8"/>
      </g>
     </g>
     <g id="text_9">
      <!-- 06-15(%) -->
      <g transform="translate(7 415.567759)scale(0.1 -0.1)">
       <defs>
        <path id="SimHei-35" d="M 550 1325 
Q 725 650 1150 575 
Q 1575 500 1837 662 
Q 2100 825 2212 1087 
Q 2325 1350 2312 1675 
Q 2300 2000 2137 2225 
Q 1975 2450 1725 2525 
Q 1475 2600 1162 2525 
Q 850 2450 650 2175 
L 225 2225 
Q 275 2375 700 4375 
L 2675 4375 
L 2675 3925 
L 1075 3925 
Q 950 3250 825 2850 
Q 1200 3025 1525 3012 
Q 1850 3000 2150 2862 
Q 2450 2725 2587 2487 
Q 2725 2250 2787 2012 
Q 2850 1775 2837 1500 
Q 2825 1225 2725 937 
Q 2625 650 2425 462 
Q 2225 275 1937 162 
Q 1650 50 1275 75 
Q 900 100 562 350 
Q 225 600 100 1200 
L 550 1325 
z
" transform="scale(0.015625)"/>
       </defs>
       <use xlink:href="#SimHei-30"/>
       <use xlink:href="#SimHei-36" x="50"/>
       <use xlink:href="#SimHei-2d" x="100"/>
       <use xlink:href="#SimHei-31" x="150"/>
       <use xlink:href="#SimHei-35" x="200"/>
       <use xlink:href="#SimHei-28" x="250"/>
       <use xlink:href="#SimHei-25" x="300"/>
       <use xlink:href="#SimHei-29" x="350"/>
      </g>
     </g>
    </g>
    <g id="ytick_10">
     <g id="line2d_10">
      <g>
       <use xlink:href="#m5bdeece592" x="54" y="447.725692" style="stroke: #000000; stroke-width: 0.8"/>
      </g>
     </g>
     <g id="text_10">
      <!-- 06-16(%) -->
      <g transform="translate(7 451.378035)scale(0.1 -0.1)">
       <use xlink:href="#SimHei-30"/>
       <use xlink:href="#SimHei-36" x="50"/>
       <use xlink:href="#SimHei-2d" x="100"/>
       <use xlink:href="#SimHei-31" x="150"/>
       <use xlink:href="#SimHei-36" x="200"/>
       <use xlink:href="#SimHei-28" x="250"/>
       <use xlink:href="#SimHei-25" x="300"/>
       <use xlink:href="#SimHei-29" x="350"/>
      </g>
     </g>
    </g>
    <g id="ytick_11">
     <g id="line2d_11">
      <g>
       <use xlink:href="#m5bdeece592" x="54" y="483.535968" style="stroke: #000000; stroke-width: 0.8"/>
      </g>
     </g>
     <g id="text_11">
      <!-- 06-17(%) -->
      <g transform="translate(7 487.188312)scale(0.1 -0.1)">
       <use xlink:href="#SimHei-30"/>
       <use xlink:href="#SimHei-36" x="50"/>
       <use xlink:href="#SimHei-2d" x="100"/>
       <use xlink:href="#SimHei-31" x="150"/>
       <use xlink:href="#SimHei-37" x="200"/>
       <use xlink:href="#SimHei-28" x="250"/>
       <use xlink:href="#SimHei-25" x="300"/>
       <use xlink:href="#SimHei-29" x="350"/>
      </g>
     </g>
    </g>
    <g id="ytick_12">
     <g id="line2d_12">
      <g>
       <use xlink:href="#m5bdeece592" x="54" y="519.346245" style="stroke: #000000; stroke-width: 0.8"/>
      </g>
     </g>
     <g id="text_12">
      <!-- 06-18(%) -->
      <g transform="translate(7 522.998589)scale(0.1 -0.1)">
       <use xlink:href="#SimHei-30"/>
       <use xlink:href="#SimHei-36" x="50"/>
       <use xlink:href="#SimHei-2d" x="100"/>
       <use xlink:href="#SimHei-31" x="150"/>
       <use xlink:href="#SimHei-38" x="200"/>
       <use xlink:href="#SimHei-28" x="250"/>
       <use xlink:href="#SimHei-25" x="300"/>
       <use xlink:href="#SimHei-29" x="350"/>
      </g>
     </g>
    </g>
    <g id="ytick_13">
     <g id="line2d_13">
      <g>
       <use xlink:href="#m5bdeece592" x="54" y="555.156522" style="stroke: #000000; stroke-width: 0.8"/>
      </g>
     </g>
     <g id="text_13">
      <!-- 06-19(%) -->
      <g transform="translate(7 558.808865)scale(0.1 -0.1)">
       <use xlink:href="#SimHei-30"/>
       <use xlink:href="#SimHei-36" x="50"/>
       <use xlink:href="#SimHei-2d" x="100"/>
       <use xlink:href="#SimHei-31" x="150"/>
       <use xlink:href="#SimHei-39" x="200"/>
       <use xlink:href="#SimHei-28" x="250"/>
       <use xlink:href="#SimHei-25" x="300"/>
       <use xlink:href="#SimHei-29" x="350"/>
      </g>
     </g>
    </g>
    <g id="ytick_14">
     <g id="line2d_14">
      <g>
       <use xlink:href="#m5bdeece592" x="54" y="590.966798" style="stroke: #000000; stroke-width: 0.8"/>
      </g>
     </g>
     <g id="text_14">
      <!-- 06-20(%) -->
      <g transform="translate(7 594.619142)scale(0.1 -0.1)">
       <use xlink:href="#SimHei-30"/>
       <use xlink:href="#SimHei-36" x="50"/>
       <use xlink:href="#SimHei-2d" x="100"/>
       <use xlink:href="#SimHei-32" x="150"/>
       <use xlink:href="#SimHei-30" x="200"/>
       <use xlink:href="#SimHei-28" x="250"/>
       <use xlink:href="#SimHei-25" x="300"/>
       <use xlink:href="#SimHei-29" x="350"/>
      </g>
     </g>
    </g>
   </g>
   <g id="patch_31">
    <path d="M 54 630 
L 54 86.4 
" style="fill: none; stroke: #000000; stroke-width: 0.8; stroke-linejoin: miter; stroke-linecap: square"/>
   </g>
   <g id="patch_32">
    <path d="M 388.8 630 
L 388.8 86.4 
" style="fill: none; stroke: #000000; stroke-width: 0.8; stroke-linejoin: miter; stroke-linecap: square"/>
   </g>
   <g id="patch_33">
    <path d="M 54 630 
L 388.8 630 
" style="fill: none; stroke: #000000; stroke-width: 0.8; stroke-linejoin: miter; stroke-linecap: square"/>
   </g>
   <g id="patch_34">
    <path d="M 54 86.4 
L 388.8 86.4 
" style="fill: none; stroke: #000000; stroke-width: 0.8; stroke-linejoin: miter; stroke-linecap: square"/>
   </g>
   <g id="text_15">
    <!-- 36.37 -->
    <g transform="translate(102.377292 128.245702)scale(0.1 -0.1)">
     <defs>
      <path id="SimHei-2e" d="M 1075 125 
L 500 125 
L 500 675 
L 1075 675 
L 1075 125 
z
" transform="scale(0.015625)"/>
     </defs>
     <use xlink:href="#SimHei-33"/>
     <use xlink:href="#SimHei-36" x="50"/>
     <use xlink:href="#SimHei-2e" x="100"/>
     <use xlink:href="#SimHei-33" x="150"/>
     <use xlink:href="#SimHei-37" x="200"/>
    </g>
   </g>
   <g id="text_16">
    <!-- 53.43 -->
    <g transform="translate(130.932877 164.055978)scale(0.1 -0.1)">
     <use xlink:href="#SimHei-35"/>
     <use xlink:href="#SimHei-33" x="50"/>
     <use xlink:href="#SimHei-2e" x="100"/>
     <use xlink:href="#SimHei-34" x="150"/>
     <use xlink:href="#SimHei-33" x="200"/>
    </g>
   </g>
   <g id="text_17">
    <!-- 50.27 -->
    <g transform="translate(125.643566 199.866255)scale(0.1 -0.1)">
     <use xlink:href="#SimHei-35"/>
     <use xlink:href="#SimHei-30" x="50"/>
     <use xlink:href="#SimHei-2e" x="100"/>
     <use xlink:href="#SimHei-32" x="150"/>
     <use xlink:href="#SimHei-37" x="200"/>
    </g>
   </g>
   <g id="text_18">
    <!-- 55.91 -->
    <g transform="translate(135.083982 235.676532)scale(0.1 -0.1)">
     <use xlink:href="#SimHei-35"/>
     <use xlink:href="#SimHei-35" x="50"/>
     <use xlink:href="#SimHei-2e" x="100"/>
     <use xlink:href="#SimHei-39" x="150"/>
     <use xlink:href="#SimHei-31" x="200"/>
    </g>
   </g>
   <g id="text_19">
    <!-- 62.6 -->
    <g transform="translate(148.781922 271.486808)scale(0.1 -0.1)">
     <use xlink:href="#SimHei-36"/>
     <use xlink:href="#SimHei-32" x="50"/>
     <use xlink:href="#SimHei-2e" x="100"/>
     <use xlink:href="#SimHei-36" x="150"/>
    </g>
   </g>
   <g id="text_20">
    <!-- 57.61 -->
    <g transform="translate(137.929497 307.297085)scale(0.1 -0.1)">
     <use xlink:href="#SimHei-35"/>
     <use xlink:href="#SimHei-37" x="50"/>
     <use xlink:href="#SimHei-2e" x="100"/>
     <use xlink:href="#SimHei-36" x="150"/>
     <use xlink:href="#SimHei-31" x="200"/>
    </g>
   </g>
   <g id="text_21">
    <!-- 60.04 -->
    <g transform="translate(141.99691 343.107362)scale(0.1 -0.1)">
     <use xlink:href="#SimHei-36"/>
     <use xlink:href="#SimHei-30" x="50"/>
     <use xlink:href="#SimHei-2e" x="100"/>
     <use xlink:href="#SimHei-30" x="150"/>
     <use xlink:href="#SimHei-34" x="200"/>
    </g>
   </g>
   <g id="text_22">
    <!-- 56.04 -->
    <g transform="translate(135.30158 378.917638)scale(0.1 -0.1)">
     <use xlink:href="#SimHei-35"/>
     <use xlink:href="#SimHei-36" x="50"/>
     <use xlink:href="#SimHei-2e" x="100"/>
     <use xlink:href="#SimHei-30" x="150"/>
     <use xlink:href="#SimHei-34" x="200"/>
    </g>
   </g>
   <g id="text_23">
    <!-- 49.61 -->
    <g transform="translate(124.538836 414.727915)scale(0.1 -0.1)">
     <use xlink:href="#SimHei-34"/>
     <use xlink:href="#SimHei-39" x="50"/>
     <use xlink:href="#SimHei-2e" x="100"/>
     <use xlink:href="#SimHei-36" x="150"/>
     <use xlink:href="#SimHei-31" x="200"/>
    </g>
   </g>
   <g id="text_24">
    <!-- 54.9 -->
    <g transform="translate(135.893411 450.538192)scale(0.1 -0.1)">
     <use xlink:href="#SimHei-35"/>
     <use xlink:href="#SimHei-34" x="50"/>
     <use xlink:href="#SimHei-2e" x="100"/>
     <use xlink:href="#SimHei-39" x="150"/>
    </g>
   </g>
   <g id="text_25">
    <!-- 46.81 -->
    <g transform="translate(119.852105 486.348468)scale(0.1 -0.1)">
     <use xlink:href="#SimHei-34"/>
     <use xlink:href="#SimHei-36" x="50"/>
     <use xlink:href="#SimHei-2e" x="100"/>
     <use xlink:href="#SimHei-38" x="150"/>
     <use xlink:href="#SimHei-31" x="200"/>
    </g>
   </g>
   <g id="text_26">
    <!-- 53.32 -->
    <g transform="translate(130.748755 522.158745)scale(0.1 -0.1)">
     <use xlink:href="#SimHei-35"/>
     <use xlink:href="#SimHei-33" x="50"/>
     <use xlink:href="#SimHei-2e" x="100"/>
     <use xlink:href="#SimHei-33" x="150"/>
     <use xlink:href="#SimHei-32" x="200"/>
    </g>
   </g>
   <g id="text_27">
    <!-- 51.3 -->
    <g transform="translate(129.867613 557.969022)scale(0.1 -0.1)">
     <use xlink:href="#SimHei-35"/>
     <use xlink:href="#SimHei-31" x="50"/>
     <use xlink:href="#SimHei-2e" x="100"/>
     <use xlink:href="#SimHei-33" x="150"/>
    </g>
   </g>
   <g id="text_28">
    <!-- 52.66 -->
    <g transform="translate(129.644026 593.779298)scale(0.1 -0.1)">
     <use xlink:href="#SimHei-35"/>
     <use xlink:href="#SimHei-32" x="50"/>
     <use xlink:href="#SimHei-2e" x="100"/>
     <use xlink:href="#SimHei-36" x="150"/>
     <use xlink:href="#SimHei-36" x="200"/>
    </g>
   </g>
   <g id="text_29">
    <!-- 63.64 -->
    <g transform="translate(269.777292 128.245702)scale(0.1 -0.1)">
     <use xlink:href="#SimHei-36"/>
     <use xlink:href="#SimHei-33" x="50"/>
     <use xlink:href="#SimHei-2e" x="100"/>
     <use xlink:href="#SimHei-36" x="150"/>
     <use xlink:href="#SimHei-34" x="200"/>
    </g>
   </g>
   <g id="text_30">
    <!-- 46.57 -->
    <g transform="translate(298.316138 164.055978)scale(0.1 -0.1)">
     <use xlink:href="#SimHei-34"/>
     <use xlink:href="#SimHei-36" x="50"/>
     <use xlink:href="#SimHei-2e" x="100"/>
     <use xlink:href="#SimHei-35" x="150"/>
     <use xlink:href="#SimHei-37" x="200"/>
    </g>
   </g>
   <g id="text_31">
    <!-- 49.73 -->
    <g transform="translate(293.026827 199.866255)scale(0.1 -0.1)">
     <use xlink:href="#SimHei-34"/>
     <use xlink:href="#SimHei-39" x="50"/>
     <use xlink:href="#SimHei-2e" x="100"/>
     <use xlink:href="#SimHei-37" x="150"/>
     <use xlink:href="#SimHei-33" x="200"/>
    </g>
   </g>
   <g id="text_32">
    <!-- 44.09 -->
    <g transform="translate(302.467243 235.676532)scale(0.1 -0.1)">
     <use xlink:href="#SimHei-34"/>
     <use xlink:href="#SimHei-34" x="50"/>
     <use xlink:href="#SimHei-2e" x="100"/>
     <use xlink:href="#SimHei-30" x="150"/>
     <use xlink:href="#SimHei-39" x="200"/>
    </g>
   </g>
   <g id="text_33">
    <!-- 37.4 -->
    <g transform="translate(316.165183 271.486808)scale(0.1 -0.1)">
     <use xlink:href="#SimHei-33"/>
     <use xlink:href="#SimHei-37" x="50"/>
     <use xlink:href="#SimHei-2e" x="100"/>
     <use xlink:href="#SimHei-34" x="150"/>
    </g>
   </g>
   <g id="text_34">
    <!-- 42.39 -->
    <g transform="translate(305.312759 307.297085)scale(0.1 -0.1)">
     <use xlink:href="#SimHei-34"/>
     <use xlink:href="#SimHei-32" x="50"/>
     <use xlink:href="#SimHei-2e" x="100"/>
     <use xlink:href="#SimHei-33" x="150"/>
     <use xlink:href="#SimHei-39" x="200"/>
    </g>
   </g>
   <g id="text_35">
    <!-- 39.96 -->
    <g transform="translate(309.380172 343.107362)scale(0.1 -0.1)">
     <use xlink:href="#SimHei-33"/>
     <use xlink:href="#SimHei-39" x="50"/>
     <use xlink:href="#SimHei-2e" x="100"/>
     <use xlink:href="#SimHei-39" x="150"/>
     <use xlink:href="#SimHei-36" x="200"/>
    </g>
   </g>
   <g id="text_36">
    <!-- 43.96 -->
    <g transform="translate(302.684842 378.917638)scale(0.1 -0.1)">
     <use xlink:href="#SimHei-34"/>
     <use xlink:href="#SimHei-33" x="50"/>
     <use xlink:href="#SimHei-2e" x="100"/>
     <use xlink:href="#SimHei-39" x="150"/>
     <use xlink:href="#SimHei-36" x="200"/>
    </g>
   </g>
   <g id="text_37">
    <!-- 50.39 -->
    <g transform="translate(291.922098 414.727915)scale(0.1 -0.1)">
     <use xlink:href="#SimHei-35"/>
     <use xlink:href="#SimHei-30" x="50"/>
     <use xlink:href="#SimHei-2e" x="100"/>
     <use xlink:href="#SimHei-33" x="150"/>
     <use xlink:href="#SimHei-39" x="200"/>
    </g>
   </g>
   <g id="text_38">
    <!-- 45.1 -->
    <g transform="translate(303.276672 450.538192)scale(0.1 -0.1)">
     <use xlink:href="#SimHei-34"/>
     <use xlink:href="#SimHei-35" x="50"/>
     <use xlink:href="#SimHei-2e" x="100"/>
     <use xlink:href="#SimHei-31" x="150"/>
    </g>
   </g>
   <g id="text_39">
    <!-- 53.19 -->
    <g transform="translate(287.235366 486.348468)scale(0.1 -0.1)">
     <use xlink:href="#SimHei-35"/>
     <use xlink:href="#SimHei-33" x="50"/>
     <use xlink:href="#SimHei-2e" x="100"/>
     <use xlink:href="#SimHei-31" x="150"/>
     <use xlink:href="#SimHei-39" x="200"/>
    </g>
   </g>
   <g id="text_40">
    <!-- 46.68 -->
    <g transform="translate(298.132017 522.158745)scale(0.1 -0.1)">
     <use xlink:href="#SimHei-34"/>
     <use xlink:href="#SimHei-36" x="50"/>
     <use xlink:href="#SimHei-2e" x="100"/>
     <use xlink:href="#SimHei-36" x="150"/>
     <use xlink:href="#SimHei-38" x="200"/>
    </g>
   </g>
   <g id="text_41">
    <!-- 48.7 -->
    <g transform="translate(297.250875 557.969022)scale(0.1 -0.1)">
     <use xlink:href="#SimHei-34"/>
     <use xlink:href="#SimHei-38" x="50"/>
     <use xlink:href="#SimHei-2e" x="100"/>
     <use xlink:href="#SimHei-37" x="150"/>
    </g>
   </g>
   <g id="text_42">
    <!-- 47.34 -->
    <g transform="translate(297.027287 593.779298)scale(0.1 -0.1)">
     <use xlink:href="#SimHei-34"/>
     <use xlink:href="#SimHei-37" x="50"/>
     <use xlink:href="#SimHei-2e" x="100"/>
     <use xlink:href="#SimHei-33" x="150"/>
     <use xlink:href="#SimHei-34" x="200"/>
    </g>
   </g>
   <g id="legend_1">
    <g id="patch_35">
     <path d="M 61 81.4 
L 181 81.4 
Q 183 81.4 183 79.4 
L 183 66.103125 
Q 183 64.103125 181 64.103125 
L 61 64.103125 
Q 59 64.103125 59 66.103125 
L 59 79.4 
Q 59 81.4 61 81.4 
z
" style="fill: #ffffff; opacity: 0.8; stroke: #cccccc; stroke-linejoin: miter"/>
    </g>
    <g id="patch_36">
     <path d="M 63 76.15 
L 83 76.15 
L 83 69.15 
L 63 69.15 
z
" style="fill: #fdad60"/>
    </g>
    <g id="text_43">
     <!-- 正向 -->
     <g transform="translate(91 76.15)scale(0.1 -0.1)">
      <defs>
       <path id="SimHei-6b63" d="M 4825 4625 
Q 5300 4625 5675 4650 
L 5675 4150 
Q 5300 4175 4775 4175 
L 3575 4175 
L 3575 2600 
L 4850 2600 
Q 5250 2600 5550 2625 
L 5550 2150 
Q 5250 2175 4850 2175 
L 3575 2175 
L 3575 150 
L 4850 150 
Q 5375 150 5900 175 
L 5900 -325 
Q 5375 -300 4975 -300 
L 1175 -300 
Q 700 -300 375 -325 
L 375 175 
Q 700 150 1175 150 
L 1325 150 
L 1325 2350 
Q 1325 2800 1300 3125 
L 1875 3125 
Q 1850 2825 1850 2350 
L 1850 150 
L 3075 150 
L 3075 4175 
L 1625 4175 
Q 1150 4175 800 4150 
L 800 4650 
Q 1150 4625 1625 4625 
L 4825 4625 
z
" transform="scale(0.015625)"/>
       <path id="SimHei-5411" d="M 2025 4150 
Q 2125 4400 2187 4637 
Q 2250 4875 2300 5175 
Q 2750 5025 2925 5000 
Q 2650 4400 2550 4150 
L 5850 4150 
Q 5825 3700 5825 3275 
L 5825 225 
Q 5825 -325 5487 -412 
Q 5150 -500 4700 -525 
Q 4625 -175 4450 50 
Q 5075 25 5212 50 
Q 5350 75 5325 325 
L 5325 3700 
L 1250 3700 
L 1250 -500 
L 725 -500 
Q 725 150 750 550 
L 750 3250 
Q 725 3700 725 4150 
L 2025 4150 
z
M 4450 2825 
Q 4425 2500 4425 2175 
L 4425 1600 
Q 4425 1275 4450 900 
L 2025 900 
Q 2050 1250 2050 1600 
L 2050 2225 
Q 2050 2525 2025 2825 
L 4450 2825 
z
M 3900 1300 
L 3900 2425 
L 2550 2425 
L 2550 1300 
L 3900 1300 
z
" transform="scale(0.015625)"/>
      </defs>
      <use xlink:href="#SimHei-6b63"/>
      <use xlink:href="#SimHei-5411" x="100"/>
     </g>
    </g>
    <g id="patch_37">
     <path d="M 131 76.15 
L 151 76.15 
L 151 69.15 
L 131 69.15 
z
" style="fill: #a5d86a"/>
    </g>
    <g id="text_44">
     <!-- 负向 -->
     <g transform="translate(159 76.15)scale(0.1 -0.1)">
      <defs>
       <path id="SimHei-8d1f" d="M 2900 5000 
Q 2575 4600 2500 4475 
L 4800 4475 
Q 4200 3500 4025 3200 
L 5450 3200 
Q 5425 2850 5425 1975 
Q 5425 1100 5450 725 
L 4925 725 
L 4925 2800 
L 1825 2800 
L 1825 650 
L 1300 650 
Q 1325 1050 1325 1925 
Q 1325 2800 1300 3150 
Q 950 2900 750 2725 
Q 525 2975 300 3125 
Q 625 3275 1062 3612 
Q 1500 3950 1875 4462 
Q 2250 4975 2375 5250 
Q 2625 5075 2900 5000 
z
M 3650 2150 
Q 3575 1900 3450 1337 
Q 3325 775 3050 412 
Q 2775 50 2162 -225 
Q 1550 -500 675 -675 
Q 600 -425 400 -175 
Q 1000 -125 1575 50 
Q 2150 225 2475 500 
Q 2800 775 2925 1187 
Q 3050 1600 3050 2225 
Q 3375 2175 3650 2150 
z
M 2225 4075 
Q 1800 3600 1350 3200 
L 3475 3200 
Q 3800 3725 4000 4075 
L 2225 4075 
z
M 3875 750 
Q 4350 525 4850 300 
Q 5350 75 5925 -225 
Q 5775 -425 5650 -700 
Q 5100 -400 4612 -150 
Q 4125 100 3650 300 
Q 3850 600 3875 750 
z
" transform="scale(0.015625)"/>
      </defs>
      <use xlink:href="#SimHei-8d1f"/>
      <use xlink:href="#SimHei-5411" x="100"/>
     </g>
    </g>
   </g>
  </g>
 </g>
 <defs>
  <clipPath id="pf4c700f7b4">
   <rect x="54" y="86.4" width="334.8" height="543.6"/>
  </clipPath>
 </defs>
</svg>
